<svg xmlns="http://www.w3.org/2000/svg" width="280" height="280" viewBox="0 0 280 280" shape-rendering="geometricPrecision"><rect width="280" height="280" fill="#FFFFFF"/><rect x="0" y="0" width="52.972972972972975" height="52.972972972972975" rx="11.35135135135135" ry="11.35135135135135" fill="#0A1F44"/><rect x="7.5675675675675675" y="7.5675675675675675" width="37.83783783783784" height="37.83783783783784" rx="7.5675675675675675" ry="7.5675675675675675" fill="#FFFFFF"/><rect x="15.135135135135135" y="15.135135135135135" width="22.702702702702705" height="22.702702702702705" rx="5.675675675675675" ry="5.675675675675675" fill="#0A1F44"/><rect x="227.02702702702703" y="0" width="52.972972972972975" height="52.972972972972975" rx="11.35135135135135" ry="11.35135135135135" fill="#0A1F44"/><rect x="234.5945945945946" y="7.5675675675675675" width="37.83783783783784" height="37.83783783783784" rx="7.5675675675675675" ry="7.5675675675675675" fill="#FFFFFF"/><rect x="242.16216216216216" y="15.135135135135135" width="22.702702702702705" height="22.702702702702705" rx="5.675675675675675" ry="5.675675675675675" fill="#0A1F44"/><rect x="0" y="227.02702702702703" width="52.972972972972975" height="52.972972972972975" rx="11.35135135135135" ry="11.35135135135135" fill="#0A1F44"/><rect x="7.5675675675675675" y="234.5945945945946" width="37.83783783783784" height="37.83783783783784" rx="7.5675675675675675" ry="7.5675675675675675" fill="#FFFFFF"/><rect x="15.135135135135135" y="242.16216216216216" width="22.702702702702705" height="22.702702702702705" rx="5.675675675675675" ry="5.675675675675675" fill="#0A1F44"/><circle cx="79.45945945945947" cy="3.7837837837837838" r="3.4054054054054053" fill="#0A1F44"/><circle cx="102.16216216216216" cy="3.7837837837837838" r="3.4054054054054053" fill="#0A1F44"/><circle cx="117.2972972972973" cy="3.7837837837837838" r="3.4054054054054053" fill="#0A1F44"/><circle cx="155.13513513513513" cy="3.7837837837837838" r="3.4054054054054053" fill="#0A1F44"/><circle cx="162.70270270270268" cy="3.7837837837837838" r="3.4054054054054053" fill="#0A1F44"/><circle cx="177.83783783783784" cy="3.7837837837837838" r="3.4054054054054053" fill="#0A1F44"/><circle cx="185.4054054054054" cy="3.7837837837837838" r="3.4054054054054053" fill="#0A1F44"/><circle cx="200.54054054054052" cy="3.7837837837837838" r="3.4054054054054053" fill="#0A1F44"/><circle cx="215.67567567567568" cy="3.7837837837837838" r="3.4054054054054053" fill="#0A1F44"/><circle cx="64.32432432432432" cy="11.35135135135135" r="3.4054054054054053" fill="#0A1F44"/><circle cx="71.8918918918919" cy="11.35135135135135" r="3.4054054054054053" fill="#0A1F44"/><circle cx="79.45945945945947" cy="11.35135135135135" r="3.4054054054054053" fill="#0A1F44"/><circle cx="87.02702702702703" cy="11.35135135135135" r="3.4054054054054053" fill="#0A1F44"/><circle cx="109.72972972972974" cy="11.35135135135135" r="3.4054054054054053" fill="#0A1F44"/><circle cx="117.2972972972973" cy="11.35135135135135" r="3.4054054054054053" fill="#0A1F44"/><circle cx="132.43243243243242" cy="11.35135135135135" r="3.4054054054054053" fill="#0A1F44"/><circle cx="147.56756756756755" cy="11.35135135135135" r="3.4054054054054053" fill="#0A1F44"/><circle cx="162.70270270270268" cy="11.35135135135135" r="3.4054054054054053" fill="#0A1F44"/><circle cx="170.27027027027026" cy="11.35135135135135" r="3.4054054054054053" fill="#0A1F44"/><circle cx="185.4054054054054" cy="11.35135135135135" r="3.4054054054054053" fill="#0A1F44"/><circle cx="192.97297297297297" cy="11.35135135135135" r="3.4054054054054053" fill="#0A1F44"/><circle cx="200.54054054054052" cy="11.35135135135135" r="3.4054054054054053" fill="#0A1F44"/><circle cx="215.67567567567568" cy="11.35135135135135" r="3.4054054054054053" fill="#0A1F44"/><circle cx="64.32432432432432" cy="18.91891891891892" r="3.4054054054054053" fill="#0A1F44"/><circle cx="87.02702702702703" cy="18.91891891891892" r="3.4054054054054053" fill="#0A1F44"/><circle cx="132.43243243243242" cy="18.91891891891892" r="3.4054054054054053" fill="#0A1F44"/><circle cx="147.56756756756755" cy="18.91891891891892" r="3.4054054054054053" fill="#0A1F44"/><circle cx="155.13513513513513" cy="18.91891891891892" r="3.4054054054054053" fill="#0A1F44"/><circle cx="170.27027027027026" cy="18.91891891891892" r="3.4054054054054053" fill="#0A1F44"/><circle cx="185.4054054054054" cy="18.91891891891892" r="3.4054054054054053" fill="#0A1F44"/><circle cx="192.97297297297297" cy="18.91891891891892" r="3.4054054054054053" fill="#0A1F44"/><circle cx="64.32432432432432" cy="26.486486486486484" r="3.4054054054054053" fill="#0A1F44"/><circle cx="79.45945945945947" cy="26.486486486486484" r="3.4054054054054053" fill="#0A1F44"/><circle cx="87.02702702702703" cy="26.486486486486484" r="3.4054054054054053" fill="#0A1F44"/><circle cx="102.16216216216216" cy="26.486486486486484" r="3.4054054054054053" fill="#0A1F44"/><circle cx="117.2972972972973" cy="26.486486486486484" r="3.4054054054054053" fill="#0A1F44"/><circle cx="140" cy="26.486486486486484" r="3.4054054054054053" fill="#0A1F44"/><circle cx="147.56756756756755" cy="26.486486486486484" r="3.4054054054054053" fill="#0A1F44"/><circle cx="162.70270270270268" cy="26.486486486486484" r="3.4054054054054053" fill="#0A1F44"/><circle cx="192.97297297297297" cy="26.486486486486484" r="3.4054054054054053" fill="#0A1F44"/><circle cx="208.1081081081081" cy="26.486486486486484" r="3.4054054054054053" fill="#0A1F44"/><circle cx="64.32432432432432" cy="34.054054054054056" r="3.4054054054054053" fill="#0A1F44"/><circle cx="71.8918918918919" cy="34.054054054054056" r="3.4054054054054053" fill="#0A1F44"/><circle cx="79.45945945945947" cy="34.054054054054056" r="3.4054054054054053" fill="#0A1F44"/><circle cx="109.72972972972974" cy="34.054054054054056" r="3.4054054054054053" fill="#0A1F44"/><circle cx="132.43243243243242" cy="34.054054054054056" r="3.4054054054054053" fill="#0A1F44"/><circle cx="147.56756756756755" cy="34.054054054054056" r="3.4054054054054053" fill="#0A1F44"/><circle cx="155.13513513513513" cy="34.054054054054056" r="3.4054054054054053" fill="#0A1F44"/><circle cx="170.27027027027026" cy="34.054054054054056" r="3.4054054054054053" fill="#0A1F44"/><circle cx="177.83783783783784" cy="34.054054054054056" r="3.4054054054054053" fill="#0A1F44"/><circle cx="185.4054054054054" cy="34.054054054054056" r="3.4054054054054053" fill="#0A1F44"/><circle cx="200.54054054054052" cy="34.054054054054056" r="3.4054054054054053" fill="#0A1F44"/><circle cx="215.67567567567568" cy="34.054054054054056" r="3.4054054054054053" fill="#0A1F44"/><circle cx="64.32432432432432" cy="41.62162162162162" r="3.4054054054054053" fill="#0A1F44"/><circle cx="71.8918918918919" cy="41.62162162162162" r="3.4054054054054053" fill="#0A1F44"/><circle cx="79.45945945945947" cy="41.62162162162162" r="3.4054054054054053" fill="#0A1F44"/><circle cx="87.02702702702703" cy="41.62162162162162" r="3.4054054054054053" fill="#0A1F44"/><circle cx="102.16216216216216" cy="41.62162162162162" r="3.4054054054054053" fill="#0A1F44"/><circle cx="117.2972972972973" cy="41.62162162162162" r="3.4054054054054053" fill="#0A1F44"/><circle cx="132.43243243243242" cy="41.62162162162162" r="3.4054054054054053" fill="#0A1F44"/><circle cx="140" cy="41.62162162162162" r="3.4054054054054053" fill="#0A1F44"/><circle cx="162.70270270270268" cy="41.62162162162162" r="3.4054054054054053" fill="#0A1F44"/><circle cx="177.83783783783784" cy="41.62162162162162" r="3.4054054054054053" fill="#0A1F44"/><circle cx="192.97297297297297" cy="41.62162162162162" r="3.4054054054054053" fill="#0A1F44"/><circle cx="200.54054054054052" cy="41.62162162162162" r="3.4054054054054053" fill="#0A1F44"/><circle cx="215.67567567567568" cy="41.62162162162162" r="3.4054054054054053" fill="#0A1F44"/><circle cx="64.32432432432432" cy="49.189189189189186" r="3.4054054054054053" fill="#0A1F44"/><circle cx="79.45945945945947" cy="49.189189189189186" r="3.4054054054054053" fill="#0A1F44"/><circle cx="94.5945945945946" cy="49.189189189189186" r="3.4054054054054053" fill="#0A1F44"/><circle cx="109.72972972972974" cy="49.189189189189186" r="3.4054054054054053" fill="#0A1F44"/><circle cx="124.86486486486487" cy="49.189189189189186" r="3.4054054054054053" fill="#0A1F44"/><circle cx="140" cy="49.189189189189186" r="3.4054054054054053" fill="#0A1F44"/><circle cx="155.13513513513513" cy="49.189189189189186" r="3.4054054054054053" fill="#0A1F44"/><circle cx="170.27027027027026" cy="49.189189189189186" r="3.4054054054054053" fill="#0A1F44"/><circle cx="185.4054054054054" cy="49.189189189189186" r="3.4054054054054053" fill="#0A1F44"/><circle cx="200.54054054054052" cy="49.189189189189186" r="3.4054054054054053" fill="#0A1F44"/><circle cx="215.67567567567568" cy="49.189189189189186" r="3.4054054054054053" fill="#0A1F44"/><circle cx="94.5945945945946" cy="56.75675675675676" r="3.4054054054054053" fill="#0A1F44"/><circle cx="102.16216216216216" cy="56.75675675675676" r="3.4054054054054053" fill="#0A1F44"/><circle cx="109.72972972972974" cy="56.75675675675676" r="3.4054054054054053" fill="#0A1F44"/><circle cx="162.70270270270268" cy="56.75675675675676" r="3.4054054054054053" fill="#0A1F44"/><circle cx="192.97297297297297" cy="56.75675675675676" r="3.4054054054054053" fill="#0A1F44"/><circle cx="208.1081081081081" cy="56.75675675675676" r="3.4054054054054053" fill="#0A1F44"/><circle cx="215.67567567567568" cy="56.75675675675676" r="3.4054054054054053" fill="#0A1F44"/><circle cx="18.91891891891892" cy="64.32432432432432" r="3.4054054054054053" fill="#0A1F44"/><circle cx="41.62162162162162" cy="64.32432432432432" r="3.4054054054054053" fill="#0A1F44"/><circle cx="49.189189189189186" cy="64.32432432432432" r="3.4054054054054053" fill="#0A1F44"/><circle cx="56.75675675675676" cy="64.32432432432432" r="3.4054054054054053" fill="#0A1F44"/><circle cx="64.32432432432432" cy="64.32432432432432" r="3.4054054054054053" fill="#0A1F44"/><circle cx="87.02702702702703" cy="64.32432432432432" r="3.4054054054054053" fill="#0A1F44"/><circle cx="94.5945945945946" cy="64.32432432432432" r="3.4054054054054053" fill="#0A1F44"/><circle cx="109.72972972972974" cy="64.32432432432432" r="3.4054054054054053" fill="#0A1F44"/><circle cx="117.2972972972973" cy="64.32432432432432" r="3.4054054054054053" fill="#0A1F44"/><circle cx="124.86486486486487" cy="64.32432432432432" r="3.4054054054054053" fill="#0A1F44"/><circle cx="140" cy="64.32432432432432" r="3.4054054054054053" fill="#0A1F44"/><circle cx="147.56756756756755" cy="64.32432432432432" r="3.4054054054054053" fill="#0A1F44"/><circle cx="155.13513513513513" cy="64.32432432432432" r="3.4054054054054053" fill="#0A1F44"/><circle cx="162.70270270270268" cy="64.32432432432432" r="3.4054054054054053" fill="#0A1F44"/><circle cx="170.27027027027026" cy="64.32432432432432" r="3.4054054054054053" fill="#0A1F44"/><circle cx="177.83783783783784" cy="64.32432432432432" r="3.4054054054054053" fill="#0A1F44"/><circle cx="185.4054054054054" cy="64.32432432432432" r="3.4054054054054053" fill="#0A1F44"/><circle cx="192.97297297297297" cy="64.32432432432432" r="3.4054054054054053" fill="#0A1F44"/><circle cx="223.24324324324323" cy="64.32432432432432" r="3.4054054054054053" fill="#0A1F44"/><circle cx="238.37837837837836" cy="64.32432432432432" r="3.4054054054054053" fill="#0A1F44"/><circle cx="245.94594594594594" cy="64.32432432432432" r="3.4054054054054053" fill="#0A1F44"/><circle cx="253.51351351351352" cy="64.32432432432432" r="3.4054054054054053" fill="#0A1F44"/><circle cx="261.0810810810811" cy="64.32432432432432" r="3.4054054054054053" fill="#0A1F44"/><circle cx="268.64864864864865" cy="64.32432432432432" r="3.4054054054054053" fill="#0A1F44"/><circle cx="11.35135135135135" cy="71.8918918918919" r="3.4054054054054053" fill="#0A1F44"/><circle cx="18.91891891891892" cy="71.8918918918919" r="3.4054054054054053" fill="#0A1F44"/><circle cx="26.486486486486484" cy="71.8918918918919" r="3.4054054054054053" fill="#0A1F44"/><circle cx="34.054054054054056" cy="71.8918918918919" r="3.4054054054054053" fill="#0A1F44"/><circle cx="71.8918918918919" cy="71.8918918918919" r="3.4054054054054053" fill="#0A1F44"/><circle cx="132.43243243243242" cy="71.8918918918919" r="3.4054054054054053" fill="#0A1F44"/><circle cx="162.70270270270268" cy="71.8918918918919" r="3.4054054054054053" fill="#0A1F44"/><circle cx="192.97297297297297" cy="71.8918918918919" r="3.4054054054054053" fill="#0A1F44"/><circle cx="238.37837837837836" cy="71.8918918918919" r="3.4054054054054053" fill="#0A1F44"/><circle cx="245.94594594594594" cy="71.8918918918919" r="3.4054054054054053" fill="#0A1F44"/><circle cx="276.21621621621625" cy="71.8918918918919" r="3.4054054054054053" fill="#0A1F44"/><circle cx="3.7837837837837838" cy="79.45945945945947" r="3.4054054054054053" fill="#0A1F44"/><circle cx="11.35135135135135" cy="79.45945945945947" r="3.4054054054054053" fill="#0A1F44"/><circle cx="41.62162162162162" cy="79.45945945945947" r="3.4054054054054053" fill="#0A1F44"/><circle cx="49.189189189189186" cy="79.45945945945947" r="3.4054054054054053" fill="#0A1F44"/><circle cx="64.32432432432432" cy="79.45945945945947" r="3.4054054054054053" fill="#0A1F44"/><circle cx="71.8918918918919" cy="79.45945945945947" r="3.4054054054054053" fill="#0A1F44"/><circle cx="102.16216216216216" cy="79.45945945945947" r="3.4054054054054053" fill="#0A1F44"/><circle cx="109.72972972972974" cy="79.45945945945947" r="3.4054054054054053" fill="#0A1F44"/><circle cx="124.86486486486487" cy="79.45945945945947" r="3.4054054054054053" fill="#0A1F44"/><circle cx="170.27027027027026" cy="79.45945945945947" r="3.4054054054054053" fill="#0A1F44"/><circle cx="177.83783783783784" cy="79.45945945945947" r="3.4054054054054053" fill="#0A1F44"/><circle cx="185.4054054054054" cy="79.45945945945947" r="3.4054054054054053" fill="#0A1F44"/><circle cx="208.1081081081081" cy="79.45945945945947" r="3.4054054054054053" fill="#0A1F44"/><circle cx="223.24324324324323" cy="79.45945945945947" r="3.4054054054054053" fill="#0A1F44"/><circle cx="230.8108108108108" cy="79.45945945945947" r="3.4054054054054053" fill="#0A1F44"/><circle cx="238.37837837837836" cy="79.45945945945947" r="3.4054054054054053" fill="#0A1F44"/><circle cx="276.21621621621625" cy="79.45945945945947" r="3.4054054054054053" fill="#0A1F44"/><circle cx="3.7837837837837838" cy="87.02702702702703" r="3.4054054054054053" fill="#0A1F44"/><circle cx="26.486486486486484" cy="87.02702702702703" r="3.4054054054054053" fill="#0A1F44"/><circle cx="41.62162162162162" cy="87.02702702702703" r="3.4054054054054053" fill="#0A1F44"/><circle cx="64.32432432432432" cy="87.02702702702703" r="3.4054054054054053" fill="#0A1F44"/><circle cx="71.8918918918919" cy="87.02702702702703" r="3.4054054054054053" fill="#0A1F44"/><circle cx="109.72972972972974" cy="87.02702702702703" r="3.4054054054054053" fill="#0A1F44"/><circle cx="117.2972972972973" cy="87.02702702702703" r="3.4054054054054053" fill="#0A1F44"/><circle cx="124.86486486486487" cy="87.02702702702703" r="3.4054054054054053" fill="#0A1F44"/><circle cx="140" cy="87.02702702702703" r="3.4054054054054053" fill="#0A1F44"/><circle cx="147.56756756756755" cy="87.02702702702703" r="3.4054054054054053" fill="#0A1F44"/><circle cx="155.13513513513513" cy="87.02702702702703" r="3.4054054054054053" fill="#0A1F44"/><circle cx="162.70270270270268" cy="87.02702702702703" r="3.4054054054054053" fill="#0A1F44"/><circle cx="177.83783783783784" cy="87.02702702702703" r="3.4054054054054053" fill="#0A1F44"/><circle cx="200.54054054054052" cy="87.02702702702703" r="3.4054054054054053" fill="#0A1F44"/><circle cx="238.37837837837836" cy="87.02702702702703" r="3.4054054054054053" fill="#0A1F44"/><circle cx="245.94594594594594" cy="87.02702702702703" r="3.4054054054054053" fill="#0A1F44"/><circle cx="253.51351351351352" cy="87.02702702702703" r="3.4054054054054053" fill="#0A1F44"/><circle cx="268.64864864864865" cy="87.02702702702703" r="3.4054054054054053" fill="#0A1F44"/><circle cx="276.21621621621625" cy="87.02702702702703" r="3.4054054054054053" fill="#0A1F44"/><circle cx="11.35135135135135" cy="94.5945945945946" r="3.4054054054054053" fill="#0A1F44"/><circle cx="26.486486486486484" cy="94.5945945945946" r="3.4054054054054053" fill="#0A1F44"/><circle cx="41.62162162162162" cy="94.5945945945946" r="3.4054054054054053" fill="#0A1F44"/><circle cx="49.189189189189186" cy="94.5945945945946" r="3.4054054054054053" fill="#0A1F44"/><circle cx="64.32432432432432" cy="94.5945945945946" r="3.4054054054054053" fill="#0A1F44"/><circle cx="79.45945945945947" cy="94.5945945945946" r="3.4054054054054053" fill="#0A1F44"/><circle cx="87.02702702702703" cy="94.5945945945946" r="3.4054054054054053" fill="#0A1F44"/><circle cx="94.5945945945946" cy="94.5945945945946" r="3.4054054054054053" fill="#0A1F44"/><circle cx="109.72972972972974" cy="94.5945945945946" r="3.4054054054054053" fill="#0A1F44"/><circle cx="117.2972972972973" cy="94.5945945945946" r="3.4054054054054053" fill="#0A1F44"/><circle cx="132.43243243243242" cy="94.5945945945946" r="3.4054054054054053" fill="#0A1F44"/><circle cx="140" cy="94.5945945945946" r="3.4054054054054053" fill="#0A1F44"/><circle cx="147.56756756756755" cy="94.5945945945946" r="3.4054054054054053" fill="#0A1F44"/><circle cx="155.13513513513513" cy="94.5945945945946" r="3.4054054054054053" fill="#0A1F44"/><circle cx="170.27027027027026" cy="94.5945945945946" r="3.4054054054054053" fill="#0A1F44"/><circle cx="208.1081081081081" cy="94.5945945945946" r="3.4054054054054053" fill="#0A1F44"/><circle cx="215.67567567567568" cy="94.5945945945946" r="3.4054054054054053" fill="#0A1F44"/><circle cx="230.8108108108108" cy="94.5945945945946" r="3.4054054054054053" fill="#0A1F44"/><circle cx="238.37837837837836" cy="94.5945945945946" r="3.4054054054054053" fill="#0A1F44"/><circle cx="253.51351351351352" cy="94.5945945945946" r="3.4054054054054053" fill="#0A1F44"/><circle cx="18.91891891891892" cy="102.16216216216216" r="3.4054054054054053" fill="#0A1F44"/><circle cx="41.62162162162162" cy="102.16216216216216" r="3.4054054054054053" fill="#0A1F44"/><circle cx="56.75675675675676" cy="102.16216216216216" r="3.4054054054054053" fill="#0A1F44"/><circle cx="64.32432432432432" cy="102.16216216216216" r="3.4054054054054053" fill="#0A1F44"/><circle cx="71.8918918918919" cy="102.16216216216216" r="3.4054054054054053" fill="#0A1F44"/><circle cx="87.02702702702703" cy="102.16216216216216" r="3.4054054054054053" fill="#0A1F44"/><circle cx="109.72972972972974" cy="102.16216216216216" r="3.4054054054054053" fill="#0A1F44"/><circle cx="124.86486486486487" cy="102.16216216216216" r="3.4054054054054053" fill="#0A1F44"/><circle cx="132.43243243243242" cy="102.16216216216216" r="3.4054054054054053" fill="#0A1F44"/><circle cx="147.56756756756755" cy="102.16216216216216" r="3.4054054054054053" fill="#0A1F44"/><circle cx="185.4054054054054" cy="102.16216216216216" r="3.4054054054054053" fill="#0A1F44"/><circle cx="192.97297297297297" cy="102.16216216216216" r="3.4054054054054053" fill="#0A1F44"/><circle cx="200.54054054054052" cy="102.16216216216216" r="3.4054054054054053" fill="#0A1F44"/><circle cx="208.1081081081081" cy="102.16216216216216" r="3.4054054054054053" fill="#0A1F44"/><circle cx="215.67567567567568" cy="102.16216216216216" r="3.4054054054054053" fill="#0A1F44"/><circle cx="223.24324324324323" cy="102.16216216216216" r="3.4054054054054053" fill="#0A1F44"/><circle cx="230.8108108108108" cy="102.16216216216216" r="3.4054054054054053" fill="#0A1F44"/><circle cx="238.37837837837836" cy="102.16216216216216" r="3.4054054054054053" fill="#0A1F44"/><circle cx="261.0810810810811" cy="102.16216216216216" r="3.4054054054054053" fill="#0A1F44"/><circle cx="276.21621621621625" cy="102.16216216216216" r="3.4054054054054053" fill="#0A1F44"/><circle cx="11.35135135135135" cy="109.72972972972974" r="3.4054054054054053" fill="#0A1F44"/><circle cx="18.91891891891892" cy="109.72972972972974" r="3.4054054054054053" fill="#0A1F44"/><circle cx="26.486486486486484" cy="109.72972972972974" r="3.4054054054054053" fill="#0A1F44"/><circle cx="34.054054054054056" cy="109.72972972972974" r="3.4054054054054053" fill="#0A1F44"/><circle cx="41.62162162162162" cy="109.72972972972974" r="3.4054054054054053" fill="#0A1F44"/><circle cx="49.189189189189186" cy="109.72972972972974" r="3.4054054054054053" fill="#0A1F44"/><circle cx="56.75675675675676" cy="109.72972972972974" r="3.4054054054054053" fill="#0A1F44"/><circle cx="94.5945945945946" cy="109.72972972972974" r="3.4054054054054053" fill="#0A1F44"/><circle cx="102.16216216216216" cy="109.72972972972974" r="3.4054054054054053" fill="#0A1F44"/><circle cx="117.2972972972973" cy="109.72972972972974" r="3.4054054054054053" fill="#0A1F44"/><circle cx="124.86486486486487" cy="109.72972972972974" r="3.4054054054054053" fill="#0A1F44"/><circle cx="140" cy="109.72972972972974" r="3.4054054054054053" fill="#0A1F44"/><circle cx="162.70270270270268" cy="109.72972972972974" r="3.4054054054054053" fill="#0A1F44"/><circle cx="170.27027027027026" cy="109.72972972972974" r="3.4054054054054053" fill="#0A1F44"/><circle cx="177.83783783783784" cy="109.72972972972974" r="3.4054054054054053" fill="#0A1F44"/><circle cx="185.4054054054054" cy="109.72972972972974" r="3.4054054054054053" fill="#0A1F44"/><circle cx="208.1081081081081" cy="109.72972972972974" r="3.4054054054054053" fill="#0A1F44"/><circle cx="215.67567567567568" cy="109.72972972972974" r="3.4054054054054053" fill="#0A1F44"/><circle cx="223.24324324324323" cy="109.72972972972974" r="3.4054054054054053" fill="#0A1F44"/><circle cx="230.8108108108108" cy="109.72972972972974" r="3.4054054054054053" fill="#0A1F44"/><circle cx="238.37837837837836" cy="109.72972972972974" r="3.4054054054054053" fill="#0A1F44"/><circle cx="245.94594594594594" cy="109.72972972972974" r="3.4054054054054053" fill="#0A1F44"/><circle cx="253.51351351351352" cy="109.72972972972974" r="3.4054054054054053" fill="#0A1F44"/><circle cx="261.0810810810811" cy="109.72972972972974" r="3.4054054054054053" fill="#0A1F44"/><circle cx="276.21621621621625" cy="109.72972972972974" r="3.4054054054054053" fill="#0A1F44"/><circle cx="3.7837837837837838" cy="117.2972972972973" r="3.4054054054054053" fill="#0A1F44"/><circle cx="11.35135135135135" cy="117.2972972972973" r="3.4054054054054053" fill="#0A1F44"/><circle cx="26.486486486486484" cy="117.2972972972973" r="3.4054054054054053" fill="#0A1F44"/><circle cx="41.62162162162162" cy="117.2972972972973" r="3.4054054054054053" fill="#0A1F44"/><circle cx="71.8918918918919" cy="117.2972972972973" r="3.4054054054054053" fill="#0A1F44"/><circle cx="79.45945945945947" cy="117.2972972972973" r="3.4054054054054053" fill="#0A1F44"/><circle cx="87.02702702702703" cy="117.2972972972973" r="3.4054054054054053" fill="#0A1F44"/><circle cx="162.70270270270268" cy="117.2972972972973" r="3.4054054054054053" fill="#0A1F44"/><circle cx="170.27027027027026" cy="117.2972972972973" r="3.4054054054054053" fill="#0A1F44"/><circle cx="177.83783783783784" cy="117.2972972972973" r="3.4054054054054053" fill="#0A1F44"/><circle cx="208.1081081081081" cy="117.2972972972973" r="3.4054054054054053" fill="#0A1F44"/><circle cx="223.24324324324323" cy="117.2972972972973" r="3.4054054054054053" fill="#0A1F44"/><circle cx="253.51351351351352" cy="117.2972972972973" r="3.4054054054054053" fill="#0A1F44"/><circle cx="276.21621621621625" cy="117.2972972972973" r="3.4054054054054053" fill="#0A1F44"/><circle cx="11.35135135135135" cy="124.86486486486487" r="3.4054054054054053" fill="#0A1F44"/><circle cx="18.91891891891892" cy="124.86486486486487" r="3.4054054054054053" fill="#0A1F44"/><circle cx="26.486486486486484" cy="124.86486486486487" r="3.4054054054054053" fill="#0A1F44"/><circle cx="34.054054054054056" cy="124.86486486486487" r="3.4054054054054053" fill="#0A1F44"/><circle cx="49.189189189189186" cy="124.86486486486487" r="3.4054054054054053" fill="#0A1F44"/><circle cx="56.75675675675676" cy="124.86486486486487" r="3.4054054054054053" fill="#0A1F44"/><circle cx="71.8918918918919" cy="124.86486486486487" r="3.4054054054054053" fill="#0A1F44"/><circle cx="79.45945945945947" cy="124.86486486486487" r="3.4054054054054053" fill="#0A1F44"/><circle cx="87.02702702702703" cy="124.86486486486487" r="3.4054054054054053" fill="#0A1F44"/><circle cx="109.72972972972974" cy="124.86486486486487" r="3.4054054054054053" fill="#0A1F44"/><circle cx="132.43243243243242" cy="124.86486486486487" r="3.4054054054054053" fill="#0A1F44"/><circle cx="155.13513513513513" cy="124.86486486486487" r="3.4054054054054053" fill="#0A1F44"/><circle cx="170.27027027027026" cy="124.86486486486487" r="3.4054054054054053" fill="#0A1F44"/><circle cx="185.4054054054054" cy="124.86486486486487" r="3.4054054054054053" fill="#0A1F44"/><circle cx="208.1081081081081" cy="124.86486486486487" r="3.4054054054054053" fill="#0A1F44"/><circle cx="215.67567567567568" cy="124.86486486486487" r="3.4054054054054053" fill="#0A1F44"/><circle cx="230.8108108108108" cy="124.86486486486487" r="3.4054054054054053" fill="#0A1F44"/><circle cx="238.37837837837836" cy="124.86486486486487" r="3.4054054054054053" fill="#0A1F44"/><circle cx="268.64864864864865" cy="124.86486486486487" r="3.4054054054054053" fill="#0A1F44"/><circle cx="276.21621621621625" cy="124.86486486486487" r="3.4054054054054053" fill="#0A1F44"/><circle cx="18.91891891891892" cy="132.43243243243242" r="3.4054054054054053" fill="#0A1F44"/><circle cx="34.054054054054056" cy="132.43243243243242" r="3.4054054054054053" fill="#0A1F44"/><circle cx="41.62162162162162" cy="132.43243243243242" r="3.4054054054054053" fill="#0A1F44"/><circle cx="64.32432432432432" cy="132.43243243243242" r="3.4054054054054053" fill="#0A1F44"/><circle cx="79.45945945945947" cy="132.43243243243242" r="3.4054054054054053" fill="#0A1F44"/><circle cx="132.43243243243242" cy="132.43243243243242" r="3.4054054054054053" fill="#0A1F44"/><circle cx="140" cy="132.43243243243242" r="3.4054054054054053" fill="#0A1F44"/><circle cx="155.13513513513513" cy="132.43243243243242" r="3.4054054054054053" fill="#0A1F44"/><circle cx="170.27027027027026" cy="132.43243243243242" r="3.4054054054054053" fill="#0A1F44"/><circle cx="177.83783783783784" cy="132.43243243243242" r="3.4054054054054053" fill="#0A1F44"/><circle cx="192.97297297297297" cy="132.43243243243242" r="3.4054054054054053" fill="#0A1F44"/><circle cx="208.1081081081081" cy="132.43243243243242" r="3.4054054054054053" fill="#0A1F44"/><circle cx="215.67567567567568" cy="132.43243243243242" r="3.4054054054054053" fill="#0A1F44"/><circle cx="223.24324324324323" cy="132.43243243243242" r="3.4054054054054053" fill="#0A1F44"/><circle cx="230.8108108108108" cy="132.43243243243242" r="3.4054054054054053" fill="#0A1F44"/><circle cx="238.37837837837836" cy="132.43243243243242" r="3.4054054054054053" fill="#0A1F44"/><circle cx="253.51351351351352" cy="132.43243243243242" r="3.4054054054054053" fill="#0A1F44"/><circle cx="276.21621621621625" cy="132.43243243243242" r="3.4054054054054053" fill="#0A1F44"/><circle cx="11.35135135135135" cy="140" r="3.4054054054054053" fill="#0A1F44"/><circle cx="18.91891891891892" cy="140" r="3.4054054054054053" fill="#0A1F44"/><circle cx="41.62162162162162" cy="140" r="3.4054054054054053" fill="#0A1F44"/><circle cx="49.189189189189186" cy="140" r="3.4054054054054053" fill="#0A1F44"/><circle cx="56.75675675675676" cy="140" r="3.4054054054054053" fill="#0A1F44"/><circle cx="64.32432432432432" cy="140" r="3.4054054054054053" fill="#0A1F44"/><circle cx="87.02702702702703" cy="140" r="3.4054054054054053" fill="#0A1F44"/><circle cx="94.5945945945946" cy="140" r="3.4054054054054053" fill="#0A1F44"/><circle cx="124.86486486486487" cy="140" r="3.4054054054054053" fill="#0A1F44"/><circle cx="132.43243243243242" cy="140" r="3.4054054054054053" fill="#0A1F44"/><circle cx="140" cy="140" r="3.4054054054054053" fill="#0A1F44"/><circle cx="147.56756756756755" cy="140" r="3.4054054054054053" fill="#0A1F44"/><circle cx="155.13513513513513" cy="140" r="3.4054054054054053" fill="#0A1F44"/><circle cx="162.70270270270268" cy="140" r="3.4054054054054053" fill="#0A1F44"/><circle cx="185.4054054054054" cy="140" r="3.4054054054054053" fill="#0A1F44"/><circle cx="192.97297297297297" cy="140" r="3.4054054054054053" fill="#0A1F44"/><circle cx="208.1081081081081" cy="140" r="3.4054054054054053" fill="#0A1F44"/><circle cx="215.67567567567568" cy="140" r="3.4054054054054053" fill="#0A1F44"/><circle cx="230.8108108108108" cy="140" r="3.4054054054054053" fill="#0A1F44"/><circle cx="238.37837837837836" cy="140" r="3.4054054054054053" fill="#0A1F44"/><circle cx="245.94594594594594" cy="140" r="3.4054054054054053" fill="#0A1F44"/><circle cx="253.51351351351352" cy="140" r="3.4054054054054053" fill="#0A1F44"/><circle cx="276.21621621621625" cy="140" r="3.4054054054054053" fill="#0A1F44"/><circle cx="3.7837837837837838" cy="147.56756756756755" r="3.4054054054054053" fill="#0A1F44"/><circle cx="11.35135135135135" cy="147.56756756756755" r="3.4054054054054053" fill="#0A1F44"/><circle cx="34.054054054054056" cy="147.56756756756755" r="3.4054054054054053" fill="#0A1F44"/><circle cx="41.62162162162162" cy="147.56756756756755" r="3.4054054054054053" fill="#0A1F44"/><circle cx="56.75675675675676" cy="147.56756756756755" r="3.4054054054054053" fill="#0A1F44"/><circle cx="79.45945945945947" cy="147.56756756756755" r="3.4054054054054053" fill="#0A1F44"/><circle cx="94.5945945945946" cy="147.56756756756755" r="3.4054054054054053" fill="#0A1F44"/><circle cx="102.16216216216216" cy="147.56756756756755" r="3.4054054054054053" fill="#0A1F44"/><circle cx="109.72972972972974" cy="147.56756756756755" r="3.4054054054054053" fill="#0A1F44"/><circle cx="124.86486486486487" cy="147.56756756756755" r="3.4054054054054053" fill="#0A1F44"/><circle cx="140" cy="147.56756756756755" r="3.4054054054054053" fill="#0A1F44"/><circle cx="155.13513513513513" cy="147.56756756756755" r="3.4054054054054053" fill="#0A1F44"/><circle cx="200.54054054054052" cy="147.56756756756755" r="3.4054054054054053" fill="#0A1F44"/><circle cx="208.1081081081081" cy="147.56756756756755" r="3.4054054054054053" fill="#0A1F44"/><circle cx="223.24324324324323" cy="147.56756756756755" r="3.4054054054054053" fill="#0A1F44"/><circle cx="238.37837837837836" cy="147.56756756756755" r="3.4054054054054053" fill="#0A1F44"/><circle cx="245.94594594594594" cy="147.56756756756755" r="3.4054054054054053" fill="#0A1F44"/><circle cx="253.51351351351352" cy="147.56756756756755" r="3.4054054054054053" fill="#0A1F44"/><circle cx="18.91891891891892" cy="155.13513513513513" r="3.4054054054054053" fill="#0A1F44"/><circle cx="41.62162162162162" cy="155.13513513513513" r="3.4054054054054053" fill="#0A1F44"/><circle cx="49.189189189189186" cy="155.13513513513513" r="3.4054054054054053" fill="#0A1F44"/><circle cx="64.32432432432432" cy="155.13513513513513" r="3.4054054054054053" fill="#0A1F44"/><circle cx="102.16216216216216" cy="155.13513513513513" r="3.4054054054054053" fill="#0A1F44"/><circle cx="109.72972972972974" cy="155.13513513513513" r="3.4054054054054053" fill="#0A1F44"/><circle cx="117.2972972972973" cy="155.13513513513513" r="3.4054054054054053" fill="#0A1F44"/><circle cx="124.86486486486487" cy="155.13513513513513" r="3.4054054054054053" fill="#0A1F44"/><circle cx="132.43243243243242" cy="155.13513513513513" r="3.4054054054054053" fill="#0A1F44"/><circle cx="155.13513513513513" cy="155.13513513513513" r="3.4054054054054053" fill="#0A1F44"/><circle cx="170.27027027027026" cy="155.13513513513513" r="3.4054054054054053" fill="#0A1F44"/><circle cx="177.83783783783784" cy="155.13513513513513" r="3.4054054054054053" fill="#0A1F44"/><circle cx="185.4054054054054" cy="155.13513513513513" r="3.4054054054054053" fill="#0A1F44"/><circle cx="208.1081081081081" cy="155.13513513513513" r="3.4054054054054053" fill="#0A1F44"/><circle cx="215.67567567567568" cy="155.13513513513513" r="3.4054054054054053" fill="#0A1F44"/><circle cx="230.8108108108108" cy="155.13513513513513" r="3.4054054054054053" fill="#0A1F44"/><circle cx="253.51351351351352" cy="155.13513513513513" r="3.4054054054054053" fill="#0A1F44"/><circle cx="276.21621621621625" cy="155.13513513513513" r="3.4054054054054053" fill="#0A1F44"/><circle cx="11.35135135135135" cy="162.70270270270268" r="3.4054054054054053" fill="#0A1F44"/><circle cx="18.91891891891892" cy="162.70270270270268" r="3.4054054054054053" fill="#0A1F44"/><circle cx="34.054054054054056" cy="162.70270270270268" r="3.4054054054054053" fill="#0A1F44"/><circle cx="56.75675675675676" cy="162.70270270270268" r="3.4054054054054053" fill="#0A1F44"/><circle cx="64.32432432432432" cy="162.70270270270268" r="3.4054054054054053" fill="#0A1F44"/><circle cx="79.45945945945947" cy="162.70270270270268" r="3.4054054054054053" fill="#0A1F44"/><circle cx="87.02702702702703" cy="162.70270270270268" r="3.4054054054054053" fill="#0A1F44"/><circle cx="94.5945945945946" cy="162.70270270270268" r="3.4054054054054053" fill="#0A1F44"/><circle cx="117.2972972972973" cy="162.70270270270268" r="3.4054054054054053" fill="#0A1F44"/><circle cx="132.43243243243242" cy="162.70270270270268" r="3.4054054054054053" fill="#0A1F44"/><circle cx="147.56756756756755" cy="162.70270270270268" r="3.4054054054054053" fill="#0A1F44"/><circle cx="155.13513513513513" cy="162.70270270270268" r="3.4054054054054053" fill="#0A1F44"/><circle cx="162.70270270270268" cy="162.70270270270268" r="3.4054054054054053" fill="#0A1F44"/><circle cx="177.83783783783784" cy="162.70270270270268" r="3.4054054054054053" fill="#0A1F44"/><circle cx="208.1081081081081" cy="162.70270270270268" r="3.4054054054054053" fill="#0A1F44"/><circle cx="230.8108108108108" cy="162.70270270270268" r="3.4054054054054053" fill="#0A1F44"/><circle cx="238.37837837837836" cy="162.70270270270268" r="3.4054054054054053" fill="#0A1F44"/><circle cx="276.21621621621625" cy="162.70270270270268" r="3.4054054054054053" fill="#0A1F44"/><circle cx="3.7837837837837838" cy="170.27027027027026" r="3.4054054054054053" fill="#0A1F44"/><circle cx="11.35135135135135" cy="170.27027027027026" r="3.4054054054054053" fill="#0A1F44"/><circle cx="49.189189189189186" cy="170.27027027027026" r="3.4054054054054053" fill="#0A1F44"/><circle cx="56.75675675675676" cy="170.27027027027026" r="3.4054054054054053" fill="#0A1F44"/><circle cx="71.8918918918919" cy="170.27027027027026" r="3.4054054054054053" fill="#0A1F44"/><circle cx="79.45945945945947" cy="170.27027027027026" r="3.4054054054054053" fill="#0A1F44"/><circle cx="87.02702702702703" cy="170.27027027027026" r="3.4054054054054053" fill="#0A1F44"/><circle cx="94.5945945945946" cy="170.27027027027026" r="3.4054054054054053" fill="#0A1F44"/><circle cx="102.16216216216216" cy="170.27027027027026" r="3.4054054054054053" fill="#0A1F44"/><circle cx="109.72972972972974" cy="170.27027027027026" r="3.4054054054054053" fill="#0A1F44"/><circle cx="117.2972972972973" cy="170.27027027027026" r="3.4054054054054053" fill="#0A1F44"/><circle cx="140" cy="170.27027027027026" r="3.4054054054054053" fill="#0A1F44"/><circle cx="147.56756756756755" cy="170.27027027027026" r="3.4054054054054053" fill="#0A1F44"/><circle cx="155.13513513513513" cy="170.27027027027026" r="3.4054054054054053" fill="#0A1F44"/><circle cx="170.27027027027026" cy="170.27027027027026" r="3.4054054054054053" fill="#0A1F44"/><circle cx="185.4054054054054" cy="170.27027027027026" r="3.4054054054054053" fill="#0A1F44"/><circle cx="192.97297297297297" cy="170.27027027027026" r="3.4054054054054053" fill="#0A1F44"/><circle cx="200.54054054054052" cy="170.27027027027026" r="3.4054054054054053" fill="#0A1F44"/><circle cx="208.1081081081081" cy="170.27027027027026" r="3.4054054054054053" fill="#0A1F44"/><circle cx="215.67567567567568" cy="170.27027027027026" r="3.4054054054054053" fill="#0A1F44"/><circle cx="223.24324324324323" cy="170.27027027027026" r="3.4054054054054053" fill="#0A1F44"/><circle cx="230.8108108108108" cy="170.27027027027026" r="3.4054054054054053" fill="#0A1F44"/><circle cx="238.37837837837836" cy="170.27027027027026" r="3.4054054054054053" fill="#0A1F44"/><circle cx="245.94594594594594" cy="170.27027027027026" r="3.4054054054054053" fill="#0A1F44"/><circle cx="276.21621621621625" cy="170.27027027027026" r="3.4054054054054053" fill="#0A1F44"/><circle cx="18.91891891891892" cy="177.83783783783784" r="3.4054054054054053" fill="#0A1F44"/><circle cx="64.32432432432432" cy="177.83783783783784" r="3.4054054054054053" fill="#0A1F44"/><circle cx="87.02702702702703" cy="177.83783783783784" r="3.4054054054054053" fill="#0A1F44"/><circle cx="94.5945945945946" cy="177.83783783783784" r="3.4054054054054053" fill="#0A1F44"/><circle cx="117.2972972972973" cy="177.83783783783784" r="3.4054054054054053" fill="#0A1F44"/><circle cx="124.86486486486487" cy="177.83783783783784" r="3.4054054054054053" fill="#0A1F44"/><circle cx="132.43243243243242" cy="177.83783783783784" r="3.4054054054054053" fill="#0A1F44"/><circle cx="147.56756756756755" cy="177.83783783783784" r="3.4054054054054053" fill="#0A1F44"/><circle cx="155.13513513513513" cy="177.83783783783784" r="3.4054054054054053" fill="#0A1F44"/><circle cx="170.27027027027026" cy="177.83783783783784" r="3.4054054054054053" fill="#0A1F44"/><circle cx="177.83783783783784" cy="177.83783783783784" r="3.4054054054054053" fill="#0A1F44"/><circle cx="200.54054054054052" cy="177.83783783783784" r="3.4054054054054053" fill="#0A1F44"/><circle cx="208.1081081081081" cy="177.83783783783784" r="3.4054054054054053" fill="#0A1F44"/><circle cx="223.24324324324323" cy="177.83783783783784" r="3.4054054054054053" fill="#0A1F44"/><circle cx="238.37837837837836" cy="177.83783783783784" r="3.4054054054054053" fill="#0A1F44"/><circle cx="276.21621621621625" cy="177.83783783783784" r="3.4054054054054053" fill="#0A1F44"/><circle cx="3.7837837837837838" cy="185.4054054054054" r="3.4054054054054053" fill="#0A1F44"/><circle cx="18.91891891891892" cy="185.4054054054054" r="3.4054054054054053" fill="#0A1F44"/><circle cx="26.486486486486484" cy="185.4054054054054" r="3.4054054054054053" fill="#0A1F44"/><circle cx="34.054054054054056" cy="185.4054054054054" r="3.4054054054054053" fill="#0A1F44"/><circle cx="49.189189189189186" cy="185.4054054054054" r="3.4054054054054053" fill="#0A1F44"/><circle cx="79.45945945945947" cy="185.4054054054054" r="3.4054054054054053" fill="#0A1F44"/><circle cx="102.16216216216216" cy="185.4054054054054" r="3.4054054054054053" fill="#0A1F44"/><circle cx="132.43243243243242" cy="185.4054054054054" r="3.4054054054054053" fill="#0A1F44"/><circle cx="140" cy="185.4054054054054" r="3.4054054054054053" fill="#0A1F44"/><circle cx="155.13513513513513" cy="185.4054054054054" r="3.4054054054054053" fill="#0A1F44"/><circle cx="162.70270270270268" cy="185.4054054054054" r="3.4054054054054053" fill="#0A1F44"/><circle cx="170.27027027027026" cy="185.4054054054054" r="3.4054054054054053" fill="#0A1F44"/><circle cx="192.97297297297297" cy="185.4054054054054" r="3.4054054054054053" fill="#0A1F44"/><circle cx="200.54054054054052" cy="185.4054054054054" r="3.4054054054054053" fill="#0A1F44"/><circle cx="215.67567567567568" cy="185.4054054054054" r="3.4054054054054053" fill="#0A1F44"/><circle cx="223.24324324324323" cy="185.4054054054054" r="3.4054054054054053" fill="#0A1F44"/><circle cx="230.8108108108108" cy="185.4054054054054" r="3.4054054054054053" fill="#0A1F44"/><circle cx="238.37837837837836" cy="185.4054054054054" r="3.4054054054054053" fill="#0A1F44"/><circle cx="245.94594594594594" cy="185.4054054054054" r="3.4054054054054053" fill="#0A1F44"/><circle cx="253.51351351351352" cy="185.4054054054054" r="3.4054054054054053" fill="#0A1F44"/><circle cx="268.64864864864865" cy="185.4054054054054" r="3.4054054054054053" fill="#0A1F44"/><circle cx="276.21621621621625" cy="185.4054054054054" r="3.4054054054054053" fill="#0A1F44"/><circle cx="26.486486486486484" cy="192.97297297297297" r="3.4054054054054053" fill="#0A1F44"/><circle cx="41.62162162162162" cy="192.97297297297297" r="3.4054054054054053" fill="#0A1F44"/><circle cx="56.75675675675676" cy="192.97297297297297" r="3.4054054054054053" fill="#0A1F44"/><circle cx="79.45945945945947" cy="192.97297297297297" r="3.4054054054054053" fill="#0A1F44"/><circle cx="102.16216216216216" cy="192.97297297297297" r="3.4054054054054053" fill="#0A1F44"/><circle cx="109.72972972972974" cy="192.97297297297297" r="3.4054054054054053" fill="#0A1F44"/><circle cx="117.2972972972973" cy="192.97297297297297" r="3.4054054054054053" fill="#0A1F44"/><circle cx="124.86486486486487" cy="192.97297297297297" r="3.4054054054054053" fill="#0A1F44"/><circle cx="132.43243243243242" cy="192.97297297297297" r="3.4054054054054053" fill="#0A1F44"/><circle cx="140" cy="192.97297297297297" r="3.4054054054054053" fill="#0A1F44"/><circle cx="147.56756756756755" cy="192.97297297297297" r="3.4054054054054053" fill="#0A1F44"/><circle cx="155.13513513513513" cy="192.97297297297297" r="3.4054054054054053" fill="#0A1F44"/><circle cx="162.70270270270268" cy="192.97297297297297" r="3.4054054054054053" fill="#0A1F44"/><circle cx="170.27027027027026" cy="192.97297297297297" r="3.4054054054054053" fill="#0A1F44"/><circle cx="200.54054054054052" cy="192.97297297297297" r="3.4054054054054053" fill="#0A1F44"/><circle cx="215.67567567567568" cy="192.97297297297297" r="3.4054054054054053" fill="#0A1F44"/><circle cx="223.24324324324323" cy="192.97297297297297" r="3.4054054054054053" fill="#0A1F44"/><circle cx="261.0810810810811" cy="192.97297297297297" r="3.4054054054054053" fill="#0A1F44"/><circle cx="276.21621621621625" cy="192.97297297297297" r="3.4054054054054053" fill="#0A1F44"/><circle cx="3.7837837837837838" cy="200.54054054054052" r="3.4054054054054053" fill="#0A1F44"/><circle cx="11.35135135135135" cy="200.54054054054052" r="3.4054054054054053" fill="#0A1F44"/><circle cx="18.91891891891892" cy="200.54054054054052" r="3.4054054054054053" fill="#0A1F44"/><circle cx="49.189189189189186" cy="200.54054054054052" r="3.4054054054054053" fill="#0A1F44"/><circle cx="56.75675675675676" cy="200.54054054054052" r="3.4054054054054053" fill="#0A1F44"/><circle cx="71.8918918918919" cy="200.54054054054052" r="3.4054054054054053" fill="#0A1F44"/><circle cx="79.45945945945947" cy="200.54054054054052" r="3.4054054054054053" fill="#0A1F44"/><circle cx="102.16216216216216" cy="200.54054054054052" r="3.4054054054054053" fill="#0A1F44"/><circle cx="124.86486486486487" cy="200.54054054054052" r="3.4054054054054053" fill="#0A1F44"/><circle cx="132.43243243243242" cy="200.54054054054052" r="3.4054054054054053" fill="#0A1F44"/><circle cx="162.70270270270268" cy="200.54054054054052" r="3.4054054054054053" fill="#0A1F44"/><circle cx="170.27027027027026" cy="200.54054054054052" r="3.4054054054054053" fill="#0A1F44"/><circle cx="177.83783783783784" cy="200.54054054054052" r="3.4054054054054053" fill="#0A1F44"/><circle cx="192.97297297297297" cy="200.54054054054052" r="3.4054054054054053" fill="#0A1F44"/><circle cx="200.54054054054052" cy="200.54054054054052" r="3.4054054054054053" fill="#0A1F44"/><circle cx="215.67567567567568" cy="200.54054054054052" r="3.4054054054054053" fill="#0A1F44"/><circle cx="223.24324324324323" cy="200.54054054054052" r="3.4054054054054053" fill="#0A1F44"/><circle cx="230.8108108108108" cy="200.54054054054052" r="3.4054054054054053" fill="#0A1F44"/><circle cx="245.94594594594594" cy="200.54054054054052" r="3.4054054054054053" fill="#0A1F44"/><circle cx="261.0810810810811" cy="200.54054054054052" r="3.4054054054054053" fill="#0A1F44"/><circle cx="268.64864864864865" cy="200.54054054054052" r="3.4054054054054053" fill="#0A1F44"/><circle cx="276.21621621621625" cy="200.54054054054052" r="3.4054054054054053" fill="#0A1F44"/><circle cx="34.054054054054056" cy="208.1081081081081" r="3.4054054054054053" fill="#0A1F44"/><circle cx="56.75675675675676" cy="208.1081081081081" r="3.4054054054054053" fill="#0A1F44"/><circle cx="79.45945945945947" cy="208.1081081081081" r="3.4054054054054053" fill="#0A1F44"/><circle cx="94.5945945945946" cy="208.1081081081081" r="3.4054054054054053" fill="#0A1F44"/><circle cx="102.16216216216216" cy="208.1081081081081" r="3.4054054054054053" fill="#0A1F44"/><circle cx="132.43243243243242" cy="208.1081081081081" r="3.4054054054054053" fill="#0A1F44"/><circle cx="140" cy="208.1081081081081" r="3.4054054054054053" fill="#0A1F44"/><circle cx="155.13513513513513" cy="208.1081081081081" r="3.4054054054054053" fill="#0A1F44"/><circle cx="162.70270270270268" cy="208.1081081081081" r="3.4054054054054053" fill="#0A1F44"/><circle cx="170.27027027027026" cy="208.1081081081081" r="3.4054054054054053" fill="#0A1F44"/><circle cx="208.1081081081081" cy="208.1081081081081" r="3.4054054054054053" fill="#0A1F44"/><circle cx="215.67567567567568" cy="208.1081081081081" r="3.4054054054054053" fill="#0A1F44"/><circle cx="223.24324324324323" cy="208.1081081081081" r="3.4054054054054053" fill="#0A1F44"/><circle cx="230.8108108108108" cy="208.1081081081081" r="3.4054054054054053" fill="#0A1F44"/><circle cx="253.51351351351352" cy="208.1081081081081" r="3.4054054054054053" fill="#0A1F44"/><circle cx="268.64864864864865" cy="208.1081081081081" r="3.4054054054054053" fill="#0A1F44"/><circle cx="276.21621621621625" cy="208.1081081081081" r="3.4054054054054053" fill="#0A1F44"/><circle cx="3.7837837837837838" cy="215.67567567567568" r="3.4054054054054053" fill="#0A1F44"/><circle cx="11.35135135135135" cy="215.67567567567568" r="3.4054054054054053" fill="#0A1F44"/><circle cx="26.486486486486484" cy="215.67567567567568" r="3.4054054054054053" fill="#0A1F44"/><circle cx="41.62162162162162" cy="215.67567567567568" r="3.4054054054054053" fill="#0A1F44"/><circle cx="49.189189189189186" cy="215.67567567567568" r="3.4054054054054053" fill="#0A1F44"/><circle cx="56.75675675675676" cy="215.67567567567568" r="3.4054054054054053" fill="#0A1F44"/><circle cx="94.5945945945946" cy="215.67567567567568" r="3.4054054054054053" fill="#0A1F44"/><circle cx="102.16216216216216" cy="215.67567567567568" r="3.4054054054054053" fill="#0A1F44"/><circle cx="117.2972972972973" cy="215.67567567567568" r="3.4054054054054053" fill="#0A1F44"/><circle cx="177.83783783783784" cy="215.67567567567568" r="3.4054054054054053" fill="#0A1F44"/><circle cx="215.67567567567568" cy="215.67567567567568" r="3.4054054054054053" fill="#0A1F44"/><circle cx="223.24324324324323" cy="215.67567567567568" r="3.4054054054054053" fill="#0A1F44"/><circle cx="230.8108108108108" cy="215.67567567567568" r="3.4054054054054053" fill="#0A1F44"/><circle cx="238.37837837837836" cy="215.67567567567568" r="3.4054054054054053" fill="#0A1F44"/><circle cx="245.94594594594594" cy="215.67567567567568" r="3.4054054054054053" fill="#0A1F44"/><circle cx="253.51351351351352" cy="215.67567567567568" r="3.4054054054054053" fill="#0A1F44"/><circle cx="268.64864864864865" cy="215.67567567567568" r="3.4054054054054053" fill="#0A1F44"/><circle cx="276.21621621621625" cy="215.67567567567568" r="3.4054054054054053" fill="#0A1F44"/><circle cx="64.32432432432432" cy="223.24324324324323" r="3.4054054054054053" fill="#0A1F44"/><circle cx="87.02702702702703" cy="223.24324324324323" r="3.4054054054054053" fill="#0A1F44"/><circle cx="94.5945945945946" cy="223.24324324324323" r="3.4054054054054053" fill="#0A1F44"/><circle cx="117.2972972972973" cy="223.24324324324323" r="3.4054054054054053" fill="#0A1F44"/><circle cx="132.43243243243242" cy="223.24324324324323" r="3.4054054054054053" fill="#0A1F44"/><circle cx="147.56756756756755" cy="223.24324324324323" r="3.4054054054054053" fill="#0A1F44"/><circle cx="170.27027027027026" cy="223.24324324324323" r="3.4054054054054053" fill="#0A1F44"/><circle cx="177.83783783783784" cy="223.24324324324323" r="3.4054054054054053" fill="#0A1F44"/><circle cx="185.4054054054054" cy="223.24324324324323" r="3.4054054054054053" fill="#0A1F44"/><circle cx="208.1081081081081" cy="223.24324324324323" r="3.4054054054054053" fill="#0A1F44"/><circle cx="215.67567567567568" cy="223.24324324324323" r="3.4054054054054053" fill="#0A1F44"/><circle cx="245.94594594594594" cy="223.24324324324323" r="3.4054054054054053" fill="#0A1F44"/><circle cx="253.51351351351352" cy="223.24324324324323" r="3.4054054054054053" fill="#0A1F44"/><circle cx="268.64864864864865" cy="223.24324324324323" r="3.4054054054054053" fill="#0A1F44"/><circle cx="276.21621621621625" cy="223.24324324324323" r="3.4054054054054053" fill="#0A1F44"/><circle cx="64.32432432432432" cy="230.8108108108108" r="3.4054054054054053" fill="#0A1F44"/><circle cx="71.8918918918919" cy="230.8108108108108" r="3.4054054054054053" fill="#0A1F44"/><circle cx="79.45945945945947" cy="230.8108108108108" r="3.4054054054054053" fill="#0A1F44"/><circle cx="109.72972972972974" cy="230.8108108108108" r="3.4054054054054053" fill="#0A1F44"/><circle cx="117.2972972972973" cy="230.8108108108108" r="3.4054054054054053" fill="#0A1F44"/><circle cx="124.86486486486487" cy="230.8108108108108" r="3.4054054054054053" fill="#0A1F44"/><circle cx="132.43243243243242" cy="230.8108108108108" r="3.4054054054054053" fill="#0A1F44"/><circle cx="140" cy="230.8108108108108" r="3.4054054054054053" fill="#0A1F44"/><circle cx="147.56756756756755" cy="230.8108108108108" r="3.4054054054054053" fill="#0A1F44"/><circle cx="177.83783783783784" cy="230.8108108108108" r="3.4054054054054053" fill="#0A1F44"/><circle cx="192.97297297297297" cy="230.8108108108108" r="3.4054054054054053" fill="#0A1F44"/><circle cx="215.67567567567568" cy="230.8108108108108" r="3.4054054054054053" fill="#0A1F44"/><circle cx="230.8108108108108" cy="230.8108108108108" r="3.4054054054054053" fill="#0A1F44"/><circle cx="245.94594594594594" cy="230.8108108108108" r="3.4054054054054053" fill="#0A1F44"/><circle cx="253.51351351351352" cy="230.8108108108108" r="3.4054054054054053" fill="#0A1F44"/><circle cx="261.0810810810811" cy="230.8108108108108" r="3.4054054054054053" fill="#0A1F44"/><circle cx="276.21621621621625" cy="230.8108108108108" r="3.4054054054054053" fill="#0A1F44"/><circle cx="64.32432432432432" cy="238.37837837837836" r="3.4054054054054053" fill="#0A1F44"/><circle cx="79.45945945945947" cy="238.37837837837836" r="3.4054054054054053" fill="#0A1F44"/><circle cx="87.02702702702703" cy="238.37837837837836" r="3.4054054054054053" fill="#0A1F44"/><circle cx="102.16216216216216" cy="238.37837837837836" r="3.4054054054054053" fill="#0A1F44"/><circle cx="109.72972972972974" cy="238.37837837837836" r="3.4054054054054053" fill="#0A1F44"/><circle cx="117.2972972972973" cy="238.37837837837836" r="3.4054054054054053" fill="#0A1F44"/><circle cx="124.86486486486487" cy="238.37837837837836" r="3.4054054054054053" fill="#0A1F44"/><circle cx="132.43243243243242" cy="238.37837837837836" r="3.4054054054054053" fill="#0A1F44"/><circle cx="200.54054054054052" cy="238.37837837837836" r="3.4054054054054053" fill="#0A1F44"/><circle cx="208.1081081081081" cy="238.37837837837836" r="3.4054054054054053" fill="#0A1F44"/><circle cx="215.67567567567568" cy="238.37837837837836" r="3.4054054054054053" fill="#0A1F44"/><circle cx="245.94594594594594" cy="238.37837837837836" r="3.4054054054054053" fill="#0A1F44"/><circle cx="253.51351351351352" cy="238.37837837837836" r="3.4054054054054053" fill="#0A1F44"/><circle cx="268.64864864864865" cy="238.37837837837836" r="3.4054054054054053" fill="#0A1F44"/><circle cx="79.45945945945947" cy="245.94594594594594" r="3.4054054054054053" fill="#0A1F44"/><circle cx="124.86486486486487" cy="245.94594594594594" r="3.4054054054054053" fill="#0A1F44"/><circle cx="132.43243243243242" cy="245.94594594594594" r="3.4054054054054053" fill="#0A1F44"/><circle cx="140" cy="245.94594594594594" r="3.4054054054054053" fill="#0A1F44"/><circle cx="155.13513513513513" cy="245.94594594594594" r="3.4054054054054053" fill="#0A1F44"/><circle cx="162.70270270270268" cy="245.94594594594594" r="3.4054054054054053" fill="#0A1F44"/><circle cx="170.27027027027026" cy="245.94594594594594" r="3.4054054054054053" fill="#0A1F44"/><circle cx="177.83783783783784" cy="245.94594594594594" r="3.4054054054054053" fill="#0A1F44"/><circle cx="185.4054054054054" cy="245.94594594594594" r="3.4054054054054053" fill="#0A1F44"/><circle cx="208.1081081081081" cy="245.94594594594594" r="3.4054054054054053" fill="#0A1F44"/><circle cx="215.67567567567568" cy="245.94594594594594" r="3.4054054054054053" fill="#0A1F44"/><circle cx="223.24324324324323" cy="245.94594594594594" r="3.4054054054054053" fill="#0A1F44"/><circle cx="230.8108108108108" cy="245.94594594594594" r="3.4054054054054053" fill="#0A1F44"/><circle cx="238.37837837837836" cy="245.94594594594594" r="3.4054054054054053" fill="#0A1F44"/><circle cx="245.94594594594594" cy="245.94594594594594" r="3.4054054054054053" fill="#0A1F44"/><circle cx="276.21621621621625" cy="245.94594594594594" r="3.4054054054054053" fill="#0A1F44"/><circle cx="79.45945945945947" cy="253.51351351351352" r="3.4054054054054053" fill="#0A1F44"/><circle cx="109.72972972972974" cy="253.51351351351352" r="3.4054054054054053" fill="#0A1F44"/><circle cx="124.86486486486487" cy="253.51351351351352" r="3.4054054054054053" fill="#0A1F44"/><circle cx="147.56756756756755" cy="253.51351351351352" r="3.4054054054054053" fill="#0A1F44"/><circle cx="155.13513513513513" cy="253.51351351351352" r="3.4054054054054053" fill="#0A1F44"/><circle cx="185.4054054054054" cy="253.51351351351352" r="3.4054054054054053" fill="#0A1F44"/><circle cx="200.54054054054052" cy="253.51351351351352" r="3.4054054054054053" fill="#0A1F44"/><circle cx="238.37837837837836" cy="253.51351351351352" r="3.4054054054054053" fill="#0A1F44"/><circle cx="245.94594594594594" cy="253.51351351351352" r="3.4054054054054053" fill="#0A1F44"/><circle cx="261.0810810810811" cy="253.51351351351352" r="3.4054054054054053" fill="#0A1F44"/><circle cx="276.21621621621625" cy="253.51351351351352" r="3.4054054054054053" fill="#0A1F44"/><circle cx="64.32432432432432" cy="261.0810810810811" r="3.4054054054054053" fill="#0A1F44"/><circle cx="79.45945945945947" cy="261.0810810810811" r="3.4054054054054053" fill="#0A1F44"/><circle cx="94.5945945945946" cy="261.0810810810811" r="3.4054054054054053" fill="#0A1F44"/><circle cx="102.16216216216216" cy="261.0810810810811" r="3.4054054054054053" fill="#0A1F44"/><circle cx="117.2972972972973" cy="261.0810810810811" r="3.4054054054054053" fill="#0A1F44"/><circle cx="140" cy="261.0810810810811" r="3.4054054054054053" fill="#0A1F44"/><circle cx="147.56756756756755" cy="261.0810810810811" r="3.4054054054054053" fill="#0A1F44"/><circle cx="155.13513513513513" cy="261.0810810810811" r="3.4054054054054053" fill="#0A1F44"/><circle cx="170.27027027027026" cy="261.0810810810811" r="3.4054054054054053" fill="#0A1F44"/><circle cx="185.4054054054054" cy="261.0810810810811" r="3.4054054054054053" fill="#0A1F44"/><circle cx="215.67567567567568" cy="261.0810810810811" r="3.4054054054054053" fill="#0A1F44"/><circle cx="245.94594594594594" cy="261.0810810810811" r="3.4054054054054053" fill="#0A1F44"/><circle cx="261.0810810810811" cy="261.0810810810811" r="3.4054054054054053" fill="#0A1F44"/><circle cx="268.64864864864865" cy="261.0810810810811" r="3.4054054054054053" fill="#0A1F44"/><circle cx="276.21621621621625" cy="261.0810810810811" r="3.4054054054054053" fill="#0A1F44"/><circle cx="87.02702702702703" cy="268.64864864864865" r="3.4054054054054053" fill="#0A1F44"/><circle cx="94.5945945945946" cy="268.64864864864865" r="3.4054054054054053" fill="#0A1F44"/><circle cx="102.16216216216216" cy="268.64864864864865" r="3.4054054054054053" fill="#0A1F44"/><circle cx="109.72972972972974" cy="268.64864864864865" r="3.4054054054054053" fill="#0A1F44"/><circle cx="124.86486486486487" cy="268.64864864864865" r="3.4054054054054053" fill="#0A1F44"/><circle cx="132.43243243243242" cy="268.64864864864865" r="3.4054054054054053" fill="#0A1F44"/><circle cx="147.56756756756755" cy="268.64864864864865" r="3.4054054054054053" fill="#0A1F44"/><circle cx="155.13513513513513" cy="268.64864864864865" r="3.4054054054054053" fill="#0A1F44"/><circle cx="162.70270270270268" cy="268.64864864864865" r="3.4054054054054053" fill="#0A1F44"/><circle cx="177.83783783783784" cy="268.64864864864865" r="3.4054054054054053" fill="#0A1F44"/><circle cx="185.4054054054054" cy="268.64864864864865" r="3.4054054054054053" fill="#0A1F44"/><circle cx="200.54054054054052" cy="268.64864864864865" r="3.4054054054054053" fill="#0A1F44"/><circle cx="208.1081081081081" cy="268.64864864864865" r="3.4054054054054053" fill="#0A1F44"/><circle cx="215.67567567567568" cy="268.64864864864865" r="3.4054054054054053" fill="#0A1F44"/><circle cx="238.37837837837836" cy="268.64864864864865" r="3.4054054054054053" fill="#0A1F44"/><circle cx="245.94594594594594" cy="268.64864864864865" r="3.4054054054054053" fill="#0A1F44"/><circle cx="253.51351351351352" cy="268.64864864864865" r="3.4054054054054053" fill="#0A1F44"/><circle cx="87.02702702702703" cy="276.21621621621625" r="3.4054054054054053" fill="#0A1F44"/><circle cx="94.5945945945946" cy="276.21621621621625" r="3.4054054054054053" fill="#0A1F44"/><circle cx="102.16216216216216" cy="276.21621621621625" r="3.4054054054054053" fill="#0A1F44"/><circle cx="109.72972972972974" cy="276.21621621621625" r="3.4054054054054053" fill="#0A1F44"/><circle cx="117.2972972972973" cy="276.21621621621625" r="3.4054054054054053" fill="#0A1F44"/><circle cx="170.27027027027026" cy="276.21621621621625" r="3.4054054054054053" fill="#0A1F44"/><circle cx="185.4054054054054" cy="276.21621621621625" r="3.4054054054054053" fill="#0A1F44"/><circle cx="215.67567567567568" cy="276.21621621621625" r="3.4054054054054053" fill="#0A1F44"/><circle cx="223.24324324324323" cy="276.21621621621625" r="3.4054054054054053" fill="#0A1F44"/><circle cx="230.8108108108108" cy="276.21621621621625" r="3.4054054054054053" fill="#0A1F44"/><circle cx="253.51351351351352" cy="276.21621621621625" r="3.4054054054054053" fill="#0A1F44"/><circle cx="276.21621621621625" cy="276.21621621621625" r="3.4054054054054053" fill="#0A1F44"/></svg>