<?xml version="1.0" encoding="UTF-8"?>
<svg xmlns="http://www.w3.org/2000/svg" viewBox="0 0 256 256" width="256" height="256" role="img" aria-label="PerfilaPro">
  <title>PerfilaPro</title>
  <!-- Full-bleed: el SO aplica su propia máscara (círculo/squircle). Sin esquinas
       redondeadas propias para no doblar el redondeo. La P se reduce al 82%
       alrededor del centro para caer dentro de la safe zone maskable. -->
  <rect width="256" height="256" fill="#00C277"/>
  <g transform="translate(128 128) scale(0.82) translate(-128 -128)">
    <path d="M35.942-121.006L19.169-123.003L21.166-132.588L69.089-132.588Q93.850-132.588 105.331-122.703Q116.813-112.819 116.813-96.845Q116.813-84.265 110.124-73.882Q103.434-63.498 90.255-57.208Q77.076-50.918 57.308-50.918L46.925-50.918Q44.928-41.134 43.231-31.250Q41.533-21.366 39.936-11.581L58.706-9.385L56.709 0L-2.596 0L-0.599-9.385L15.974-11.182L27.156-70.687Q29.353-83.267 31.649-95.846Q33.946-108.426 35.942-121.006M60.303-122.004L48.922-61.901Q48.922-61.701 48.822-61.501Q48.722-61.302 48.722-61.102L57.508-61.102Q74.081-61.102 83.267-70.787Q92.452-80.471 92.452-96.645Q92.452-109.025 85.763-115.515Q79.073-122.004 66.493-122.004" fill="#FFFFFF" transform="translate(70.89 199.41)"/>
  </g>
</svg>
