<svg xmlns="http://www.w3.org/2000/svg" viewBox="0 0 24 24" width="24" height="24" fill="currentColor"><path d="M17.5 14.4c-.3-.1-1.7-.8-2-.9-.3-.1-.5-.1-.7.1-.2.3-.7.9-.9 1.1-.2.1-.3.2-.6 0-.3-.1-1.2-.4-2.2-1.4-.8-.7-1.4-1.6-1.5-1.9-.2-.3 0-.4.1-.6.1-.1.3-.3.4-.5.1-.1.2-.3.2-.4.1-.2 0-.3 0-.5s-.7-1.6-.9-2.2c-.2-.6-.5-.5-.7-.5h-.5c-.2 0-.5.1-.8.4-.3.3-1 1-1 2.4 0 1.4 1 2.8 1.2 3 .1.2 2 3 4.8 4.2.7.3 1.2.5 1.6.6.7.2 1.3.2 1.8.1.6-.1 1.7-.7 1.9-1.4.2-.7.2-1.2.2-1.4-.1-.1-.2-.2-.5-.3z"/><path d="M20.5 3.5C18.2 1.2 15.2 0 12 0 5.4 0 0 5.4 0 12c0 2.1.6 4.2 1.6 6L0 24l6.2-1.6c1.7.9 3.7 1.4 5.7 1.4h.1c6.6 0 12-5.4 12-12 0-3.2-1.2-6.2-3.5-8.4zM12 22c-1.8 0-3.6-.5-5.1-1.4l-.4-.2-3.7 1 1-3.6-.2-.4C2.5 15.8 2 13.9 2 12 2 6.5 6.5 2 12 2c2.7 0 5.2 1 7.1 2.9C21 6.8 22 9.3 22 12c0 5.5-4.5 10-10 10z"/></svg>
