<?xml version="1.0" encoding="UTF-8"?>
<svg xmlns="http://www.w3.org/2000/svg" viewBox="0 0 1113.20 637.00" width="1113" height="637" role="img" aria-label="PerfilaPro · Tu trabajo merece verse.">
  <title>PerfilaPro · Tu trabajo merece verse.</title>
  
  <g transform="translate(100.00 307.20)"><path d="M59.800-122.600L51.200-122.600Q51-109.800 50.900-96.700Q50.800-83.600 50.800-70.600L50.800-61.800L60.600-61.800Q76.400-61.800 83.600-70.500Q90.800-79.200 90.800-93Q90.800-107.200 83.100-114.900Q75.400-122.600 59.800-122.600M24.600-121.600L7.800-123.400L7.800-132.800L61.800-132.800Q90-132.800 103.100-121.800Q116.200-110.800 116.200-93Q116.200-81.800 110.700-72.300Q105.200-62.800 92.600-57.200Q80-51.600 59-51.600L50.800-51.600Q50.800-41.800 50.900-31.900Q51-22 51.200-11.400L69.400-9.400L69.400 0L7.800 0L7.800-9.400L24.600-11.200Q25-23.600 25-36.400Q25-49.200 25-62L25-70.600Q25-83.200 25-96Q25-108.800 24.600-121.600" fill="#0A1F44" transform="translate(0.000 0)"/><path d="M55.200-88.800Q50-88.800 45.100-85.800Q40.200-82.800 36.800-75.800Q33.400-68.800 32.600-56.800L59.600-56.800Q67.400-56.800 69.900-59.800Q72.400-62.800 72.400-68.200Q72.400-78.600 67.600-83.700Q62.800-88.800 55.200-88.800M56.200 2.800Q41.600 2.800 30.600-3Q19.600-8.800 13.500-19.900Q7.400-31 7.400-46.800Q7.400-62.800 13.800-74.400Q20.200-86 31.100-92.300Q42-98.600 55.200-98.600Q67.200-98.600 76.200-93.600Q85.200-88.600 90.200-79.600Q95.200-70.600 95.200-58.400Q95.200-52 94-47.400L32.400-47.400Q33.200-30.400 41.800-21.700Q50.400-13 63.800-13Q80.400-13 90.800-24.800L96.200-20.400Q90-9.400 80.800-3.300Q71.600 2.800 56.200 2.800" fill="#0A1F44" transform="translate(120.000 0)"/><path d="M60.600 0L7 0L7-8.200L20-10.800Q20.200-18.200 20.200-26.900Q20.200-35.600 20.200-42L20.200-52.600Q20.200-60.800 20.100-65.700Q20-70.600 19.600-76.600L5.400-78.400L5.400-85.800L38.800-98.600L42-96.600L44-72.800Q48.600-85.200 56.400-91.900Q64.200-98.600 72-98.600Q77.400-98.600 81.800-95.800Q86.200-93 87.600-87.800Q87.200-72.400 74.800-72.400Q67.400-72.400 61-79.400L59.200-81.400Q48.400-72 44-56L44-42Q44-35.800 44-27.300Q44-18.800 44.200-11.400L60.600-8.200" fill="#0A1F44" transform="translate(223.000 0)"/><path d="M61.600 0L6.600 0L6.600-8.200L20.200-10.800Q20.400-18.600 20.500-26.400Q20.600-34.200 20.600-42L20.600-83.800L5.600-83.800L5.600-94L21-96Q22.600-110.800 26-120.200Q29.400-129.600 37.400-137.400Q43.800-143.400 51.500-146.100Q59.200-148.800 66.800-148.800Q74.600-148.800 80.600-145.900Q86.600-143 88.200-136.200Q88-131.600 84.600-128.400Q81.200-125.200 75-125.200Q70.600-125.200 66.800-127.500Q63-129.800 59-135.200L55.200-138.800Q54.200-138 53.200-136.800Q52.200-135.600 51.200-134Q48.600-130 46.900-125.200Q45.200-120.400 44.500-113.400Q43.800-106.400 44-95.800L68.800-95.800L68.800-83.800L44.400-83.800L44.400-42Q44.400-34.400 44.500-26.700Q44.600-19 44.800-11.200L61.600-8.200" fill="#0A1F44" transform="translate(311.600 0)"/><path d="M56 0L6.600 0L6.600-8.200L19.600-10.800Q19.800-18.200 19.800-26.900Q19.800-35.600 19.800-42L19.800-51.400Q19.800-59.600 19.700-65.100Q19.600-70.600 19.200-76.600L5-78.400L5-85.800L41-98.600L44.200-96.600L43.600-68.400L43.600-42Q43.600-35.600 43.600-26.900Q43.600-18.200 43.800-10.600L56-8.200L56 0M30.800-116Q24.600-116 20.200-120Q15.800-124 15.800-130.200Q15.800-136.600 20.200-140.600Q24.600-144.600 30.800-144.600Q37.200-144.600 41.500-140.600Q45.800-136.600 45.800-130.200Q45.800-124 41.500-120Q37.200-116 30.800-116" fill="#0A1F44" transform="translate(383.200 0)"/><path d="M57.200 0L5.200 0L5.200-8.200L18.800-10.800Q19-18.600 19.100-26.400Q19.200-34.200 19.200-42L19.200-128L4.600-130L4.600-137.800L40.800-146.800L43.800-145L43-116.600L43-42Q43-34.200 43.100-26.400Q43.200-18.600 43.400-10.800L57.200-8.200" fill="#0A1F44" transform="translate(444.600 0)"/><path d="M83 2.400Q75 2.400 70-1.600Q65-5.600 63.400-12.400Q56-5 49.800-1.100Q43.600 2.800 34.200 2.800Q23 2.800 15.300-3.700Q7.600-10.200 7.600-22.400Q7.600-28.800 10.500-34.400Q13.400-40 21.100-44.800Q28.800-49.600 43.400-53.600Q48.200-55 53-56.300Q57.800-57.600 62.600-59L62.600-65.200Q62.600-79.200 58.700-84Q54.800-88.800 45-88.800Q43-88.800 41-88.600Q39-88.400 36.600-88L34.200-77.200Q33.400-70 30.100-66.600Q26.800-63.200 21.800-63.200Q12.200-63.200 10.600-72.400Q12.400-84.200 23.500-91.400Q34.600-98.600 52.800-98.600Q70.200-98.600 78.100-90.300Q86-82 86-62.400L86-18.800Q86-9.800 92-9.800Q95.800-9.800 99-14.200L103.600-10.200Q100-3.400 95-0.500Q90 2.400 83 2.400M31-26Q31-18.600 35-15.200Q39-11.800 45.200-11.800Q49.200-11.800 52.800-13.300Q56.400-14.800 62.600-19.200L62.600-51Q59.200-50 55.900-48.900Q52.600-47.800 49.400-46.800Q37.800-43 34.400-37.500Q31-32 31-26" fill="#0A1F44" transform="translate(506.600 0)"/></g>
  <g transform="translate(709.40 307.20)"><path d="M36-121.200L19.200-123.200L21.200-132.800L69.200-132.800Q94-132.800 105.500-122.900Q117-113 117-97Q117-84.400 110.300-74Q103.600-63.600 90.400-57.300Q77.200-51 57.400-51L47-51Q45-41.200 43.300-31.300Q41.600-21.400 40-11.600L58.800-9.400L56.800 0L-2.600 0L-0.600-9.400L16-11.200L27.200-70.800Q29.400-83.400 31.700-96Q34-108.600 36-121.200M60.400-122.200L49-62Q49-61.800 48.900-61.600Q48.800-61.400 48.800-61.200L57.600-61.200Q74.200-61.200 83.400-70.900Q92.600-80.600 92.600-96.800Q92.600-109.200 85.900-115.700Q79.200-122.200 66.600-122.200" fill="#00C277" transform="translate(0.000 0)"/><path d="M11.400 1.600L8.800-0.400L25.400-79.600L8.800-81.400L9.800-88L45.400-98.800L48.600-96.200L43.800-67.400Q48.200-76 53.400-83Q58.600-90 64.200-94.300Q69.800-98.600 75.400-98.600Q80.200-98.600 84.100-96.700Q88-94.800 90-90.800Q90-84.800 86.900-80.800Q83.800-76.800 78-76.800Q71.400-76.800 64.600-83.600Q56.800-76.200 51-67.300Q45.200-58.400 40.600-48.800L39.200-42.400Q37-31.800 35-21.300Q33-10.800 31 0" fill="#00C277" transform="translate(115.800 0)"/><path d="M42.200 2.800Q32.200 2.800 24-1.300Q15.800-5.400 11-13.500Q6.200-21.600 6.200-33.800Q6.200-46.800 10.500-58.500Q14.800-70.200 22.400-79.200Q30-88.200 40-93.400Q50-98.600 61.600-98.600Q77-98.600 87-89.500Q97-80.400 97-62Q97-49.200 92.800-37.600Q88.600-26 81.100-16.900Q73.600-7.800 63.700-2.500Q53.800 2.800 42.200 2.800M44.600-6.600Q51.200-6.600 56.700-11.600Q62.200-16.600 66.200-24.900Q70.200-33.200 72.300-43.300Q74.400-53.400 74.400-63.600Q74.400-77.800 70.200-83.500Q66-89.200 59.200-89.200Q52.600-89.200 47.100-84.400Q41.600-79.600 37.500-71.500Q33.400-63.400 31.100-53.200Q28.800-43 28.800-32.400Q28.800-18.200 33.300-12.400Q37.800-6.600 44.600-6.600" fill="#00C277" transform="translate(201.600 0)"/></g>
  <g transform="translate(325.05 528.20)"><path d="M5.280-21.164L2.420-21.164L4.048-29.216L27.896-29.216L26.532-21.164L23.716-21.164L23.848-26.840L18.260-26.840L15.752-13.640Q15.268-10.868 14.762-8.096Q14.256-5.324 13.772-2.508L17.908-2.068L17.512 0L4.004 0L4.444-2.068L8.536-2.508L10.956-15.576Q11.484-18.392 11.990-21.208Q12.496-24.024 12.936-26.840L7.216-26.840" fill="#0A1F44" transform="translate(0.000 0)"/><path d="M17.556 0.616Q16.368 0.616 15.532-0.198Q14.696-1.012 14.696-2.552Q14.696-2.860 14.740-3.234Q14.784-3.608 14.916-4.180Q12.584-1.892 10.450-0.638Q8.316 0.616 6.380 0.616Q4.884 0.616 3.872-0.286Q2.860-1.188 2.860-2.860Q2.860-3.916 3.102-5.214Q3.344-6.512 3.608-7.700L5.808-17.512L2.024-17.908L2.244-19.404L10.692-21.736L11.352-21.164L8.492-8.580Q8.228-7.480 8.074-6.578Q7.920-5.676 7.920-4.972Q7.920-3.168 9.504-3.168Q10.648-3.168 11.990-3.894Q13.332-4.620 15.224-6.204L16.632-12.892Q16.984-14.740 17.358-16.610Q17.732-18.480 18.040-20.372L22.396-21.736L23.100-21.164L19.888-6.028Q19.536-4.488 19.536-3.828Q19.536-3.388 19.800-3.146Q20.064-2.904 20.416-2.904Q21.736-2.904 24.156-5.852L25.344-4.972Q24.420-3.608 23.254-2.310Q22.088-1.012 20.680-0.198Q19.272 0.616 17.556 0.616" fill="#0A1F44" transform="translate(25.872 0)"/><path d="" fill="#0A1F44" transform="translate(51.436 0)"/><path d="M5.544 0.616Q4.312 0.616 3.454-0.044Q2.596-0.704 2.596-2.024Q2.596-3.388 3.124-5.808L5.940-18.832L2.024-18.832L2.420-20.680L6.644-21.120L9.152-27.060L12.320-27.060L11.044-21.076L16.148-21.076L15.664-18.524L10.560-18.656L7.920-6.072Q7.744-5.324 7.656-4.774Q7.568-4.224 7.568-3.872Q7.568-3.432 7.854-3.168Q8.140-2.904 8.492-2.904Q9.240-2.904 10.120-3.630Q11-4.356 12.232-5.852L13.464-4.972Q12.584-3.608 11.374-2.310Q10.164-1.012 8.690-0.198Q7.216 0.616 5.544 0.616" fill="#0A1F44" transform="translate(61.336 0)"/><path d="M2.508 0.352L1.936-0.088L5.588-17.512L1.936-17.908L2.156-19.360L9.988-21.736L10.692-21.164L9.636-14.828Q10.604-16.720 11.748-18.260Q12.892-19.800 14.124-20.746Q15.356-21.692 16.588-21.692Q17.644-21.692 18.502-21.274Q19.360-20.856 19.800-19.976Q19.800-18.656 19.118-17.776Q18.436-16.896 17.160-16.896Q15.708-16.896 14.212-18.392Q12.496-16.764 11.220-14.806Q9.944-12.848 8.932-10.736L8.624-9.328Q8.140-6.996 7.700-4.686Q7.260-2.376 6.820 0" fill="#0A1F44" transform="translate(76.164 0)"/><path d="M6.072-7.084Q6.072-5.060 6.776-4.114Q7.480-3.168 8.580-3.168Q9.592-3.168 10.802-3.916Q12.012-4.664 13.640-6.336L16.148-17.908Q15.576-18.216 14.938-18.414Q14.300-18.612 13.640-18.612Q11.748-18.612 9.680-16.632Q8.668-15.620 7.832-14.036Q6.996-12.452 6.534-10.648Q6.072-8.844 6.072-7.084M16.148 0.616Q14.916 0.616 14.080-0.198Q13.244-1.012 13.200-2.640Q13.200-3.432 13.332-4.136Q11.440-2.024 9.416-0.704Q7.392 0.616 5.588 0.616Q3.872 0.616 2.530-0.682Q1.188-1.980 1.188-5.060Q1.188-7.392 2.068-9.746Q2.948-12.100 4.444-14.256Q5.940-16.412 7.788-18.084Q9.636-19.756 11.616-20.724Q13.596-21.692 15.400-21.692Q16.280-21.692 16.984-21.362Q17.688-21.032 18.304-20.460L20.988-22L21.780-21.516L18.260-6.028Q17.908-4.488 17.908-3.828Q17.908-2.904 18.832-2.904Q19.580-2.904 20.526-3.696Q21.472-4.488 22.572-5.852L23.760-5.016Q22.968-3.696 21.780-2.398Q20.592-1.100 19.162-0.242Q17.732 0.616 16.148 0.616" fill="#0A1F44" transform="translate(95.040 0)"/><path d="M7.304-4.664Q7.304-3.608 7.854-2.992Q8.404-2.376 9.460-2.376Q11.792-2.376 13.992-4.884Q14.960-5.940 15.708-7.480Q16.456-9.020 16.874-10.736Q17.292-12.452 17.292-14.080Q17.292-16.016 16.610-17.006Q15.928-17.996 14.784-17.996Q13.552-17.996 12.144-17.050Q10.736-16.104 9.108-14.432L8.184-10.340Q7.744-8.140 7.524-6.930Q7.304-5.720 7.304-4.664M6.996 0.616Q5.104 0.616 3.850-0.462Q2.596-1.540 2.596-3.696Q2.596-5.236 2.948-7.062Q3.300-8.888 3.696-10.912L7.084-27.852L3.388-28.292L3.652-29.744L12.056-32.120L12.628-31.636L9.416-16.500Q11.352-18.920 13.618-20.306Q15.884-21.692 17.820-21.692Q19.624-21.692 20.856-20.394Q22.088-19.096 22.088-15.972Q22.088-13.596 21.230-11.220Q20.372-8.844 18.898-6.710Q17.424-4.576 15.488-2.926Q13.552-1.276 11.374-0.330Q9.196 0.616 6.996 0.616" fill="#0A1F44" transform="translate(119.064 0)"/><path d="M6.072-7.084Q6.072-5.060 6.776-4.114Q7.480-3.168 8.580-3.168Q9.592-3.168 10.802-3.916Q12.012-4.664 13.640-6.336L16.148-17.908Q15.576-18.216 14.938-18.414Q14.300-18.612 13.640-18.612Q11.748-18.612 9.680-16.632Q8.668-15.620 7.832-14.036Q6.996-12.452 6.534-10.648Q6.072-8.844 6.072-7.084M16.148 0.616Q14.916 0.616 14.080-0.198Q13.244-1.012 13.200-2.640Q13.200-3.432 13.332-4.136Q11.440-2.024 9.416-0.704Q7.392 0.616 5.588 0.616Q3.872 0.616 2.530-0.682Q1.188-1.980 1.188-5.060Q1.188-7.392 2.068-9.746Q2.948-12.100 4.444-14.256Q5.940-16.412 7.788-18.084Q9.636-19.756 11.616-20.724Q13.596-21.692 15.400-21.692Q16.280-21.692 16.984-21.362Q17.688-21.032 18.304-20.460L20.988-22L21.780-21.516L18.260-6.028Q17.908-4.488 17.908-3.828Q17.908-2.904 18.832-2.904Q19.580-2.904 20.526-3.696Q21.472-4.488 22.572-5.852L23.760-5.016Q22.968-3.696 21.780-2.398Q20.592-1.100 19.162-0.242Q17.732 0.616 16.148 0.616" fill="#0A1F44" transform="translate(141.812 0)"/><path d="M-3.476 10.648L-3.784 9.328Q-2.684 8.844-1.870 8.316Q-1.056 7.788-0.352 6.864Q0.572 5.588 1.298 3.586Q2.024 1.584 2.728-2.156L5.632-17.512L1.936-17.908L2.156-19.360L10.384-21.736L11.044-21.208L7.304-1.892Q6.644 1.320 5.500 3.718Q4.356 6.116 2.596 7.744Q1.452 8.976-0.088 9.724Q-1.628 10.472-3.476 10.648M10.120-26.840Q9.020-26.840 8.206-27.588Q7.392-28.336 7.392-29.568Q7.392-30.932 8.338-31.856Q9.284-32.780 10.472-32.780Q11.660-32.780 12.430-32.032Q13.200-31.284 13.200-30.096Q13.200-28.732 12.254-27.786Q11.308-26.840 10.120-26.840" fill="#0A1F44" transform="translate(165.836 0)"/><path d="M9.284 0.616Q7.084 0.616 5.280-0.286Q3.476-1.188 2.420-2.970Q1.364-4.752 1.364-7.436Q1.364-10.296 2.310-12.870Q3.256-15.444 4.928-17.424Q6.600-19.404 8.800-20.548Q11-21.692 13.552-21.692Q16.940-21.692 19.140-19.690Q21.340-17.688 21.340-13.640Q21.340-10.824 20.416-8.272Q19.492-5.720 17.842-3.718Q16.192-1.716 14.014-0.550Q11.836 0.616 9.284 0.616M9.812-1.452Q11.264-1.452 12.474-2.552Q13.684-3.652 14.564-5.478Q15.444-7.304 15.906-9.526Q16.368-11.748 16.368-13.992Q16.368-17.116 15.444-18.370Q14.520-19.624 13.024-19.624Q11.572-19.624 10.362-18.568Q9.152-17.512 8.250-15.730Q7.348-13.948 6.842-11.704Q6.336-9.460 6.336-7.128Q6.336-4.004 7.326-2.728Q8.316-1.452 9.812-1.452" fill="#0A1F44" transform="translate(177.672 0)"/><path d="" fill="#0A1F44" transform="translate(200.156 0)"/><path d="M6.820 0L2.508 0.352L1.936-0.088L5.588-17.512L1.936-17.908L2.156-19.360L10.384-21.736L11.088-21.164L10.208-16.940Q12.408-19.052 14.806-20.372Q17.204-21.692 19.228-21.692Q20.636-21.692 21.472-20.856Q22.308-20.020 22.308-18.348Q22.308-17.600 22.176-16.940Q24.332-19.052 26.598-20.372Q28.864-21.692 30.888-21.692Q32.296-21.692 33.132-20.856Q33.968-20.020 33.968-18.348Q33.968-17.380 33.770-16.368Q33.572-15.356 33.308-14.300L31.284-6.028Q31.108-5.236 30.976-4.708Q30.844-4.180 30.844-3.828Q30.844-2.904 31.592-2.904Q33-2.904 35.376-5.852L36.564-4.972Q35.640-3.564 34.430-2.288Q33.220-1.012 31.746-0.198Q30.272 0.616 28.556 0.616Q27.236 0.616 26.510 0Q25.784-0.616 25.784-1.716Q25.784-2.596 25.982-3.476Q26.180-4.356 26.488-5.544L28.248-12.716Q28.512-13.816 28.710-14.762Q28.908-15.708 28.908-16.280Q28.908-17.248 28.556-17.622Q28.204-17.996 27.544-17.996Q25.476-17.996 21.692-14.740L20.592-9.328Q20.108-6.996 19.646-4.686Q19.184-2.376 18.744 0L14.476 0.352L13.948-0.088L16.852-13.816Q16.984-14.564 17.094-15.224Q17.204-15.884 17.204-16.412Q17.204-17.996 15.928-17.996Q14.828-17.996 13.288-17.226Q11.748-16.456 9.812-14.784L8.624-9.328Q8.140-6.996 7.700-4.686Q7.260-2.376 6.820 0" fill="#0A1F44" transform="translate(210.056 0)"/><path d="M12.892-19.580Q11.924-19.580 10.802-18.788Q9.680-17.996 8.668-16.610Q7.656-15.224 6.952-13.420Q6.248-11.616 6.116-9.636Q9.460-10.692 11.374-11.990Q13.288-13.288 14.102-14.652Q14.916-16.016 14.916-17.204Q14.916-18.348 14.344-18.964Q13.772-19.580 12.892-19.580M8.580 0.616Q5.456 0.616 3.454-1.474Q1.452-3.564 1.452-7.612Q1.452-10.384 2.398-12.914Q3.344-15.444 5.038-17.424Q6.732-19.404 8.954-20.548Q11.176-21.692 13.728-21.692Q16.236-21.692 17.600-20.526Q18.964-19.360 18.964-17.292Q18.964-15.708 17.688-13.992Q16.412-12.276 13.596-10.692Q10.780-9.108 6.116-7.832Q6.336-5.412 7.502-4.290Q8.668-3.168 10.560-3.168Q12.584-3.168 14.058-4.180Q15.532-5.192 16.500-6.380L17.644-5.544Q16.720-3.960 15.356-2.552Q13.992-1.144 12.298-0.264Q10.604 0.616 8.580 0.616" fill="#0A1F44" transform="translate(247.016 0)"/><path d="M2.508 0.352L1.936-0.088L5.588-17.512L1.936-17.908L2.156-19.360L9.988-21.736L10.692-21.164L9.636-14.828Q10.604-16.720 11.748-18.260Q12.892-19.800 14.124-20.746Q15.356-21.692 16.588-21.692Q17.644-21.692 18.502-21.274Q19.360-20.856 19.800-19.976Q19.800-18.656 19.118-17.776Q18.436-16.896 17.160-16.896Q15.708-16.896 14.212-18.392Q12.496-16.764 11.220-14.806Q9.944-12.848 8.932-10.736L8.624-9.328Q8.140-6.996 7.700-4.686Q7.260-2.376 6.820 0" fill="#0A1F44" transform="translate(266.332 0)"/><path d="M12.892-19.580Q11.924-19.580 10.802-18.788Q9.680-17.996 8.668-16.610Q7.656-15.224 6.952-13.420Q6.248-11.616 6.116-9.636Q9.460-10.692 11.374-11.990Q13.288-13.288 14.102-14.652Q14.916-16.016 14.916-17.204Q14.916-18.348 14.344-18.964Q13.772-19.580 12.892-19.580M8.580 0.616Q5.456 0.616 3.454-1.474Q1.452-3.564 1.452-7.612Q1.452-10.384 2.398-12.914Q3.344-15.444 5.038-17.424Q6.732-19.404 8.954-20.548Q11.176-21.692 13.728-21.692Q16.236-21.692 17.600-20.526Q18.964-19.360 18.964-17.292Q18.964-15.708 17.688-13.992Q16.412-12.276 13.596-10.692Q10.780-9.108 6.116-7.832Q6.336-5.412 7.502-4.290Q8.668-3.168 10.560-3.168Q12.584-3.168 14.058-4.180Q15.532-5.192 16.500-6.380L17.644-5.544Q16.720-3.960 15.356-2.552Q13.992-1.144 12.298-0.264Q10.604 0.616 8.580 0.616" fill="#0A1F44" transform="translate(285.208 0)"/><path d="M8.536 0.616Q5.412 0.616 3.432-1.518Q1.452-3.652 1.452-7.656Q1.452-10.472 2.420-13.002Q3.388-15.532 5.082-17.490Q6.776-19.448 8.954-20.570Q11.132-21.692 13.552-21.692Q15.752-21.692 17.160-20.702Q18.568-19.712 19.008-18.040Q18.920-17.028 18.194-16.434Q17.468-15.840 16.544-15.840Q15.620-15.840 14.960-16.434Q14.300-17.028 13.728-17.820L12.408-19.756Q10.560-18.832 9.174-17.094Q7.788-15.356 7.018-13.134Q6.248-10.912 6.248-8.580Q6.248-5.808 7.568-4.488Q8.888-3.168 11.044-3.168Q12.584-3.168 14.014-4.114Q15.444-5.060 16.544-6.380L17.644-5.544Q16.764-3.916 15.334-2.508Q13.904-1.100 12.166-0.242Q10.428 0.616 8.536 0.616" fill="#0A1F44" transform="translate(304.524 0)"/><path d="M12.892-19.580Q11.924-19.580 10.802-18.788Q9.680-17.996 8.668-16.610Q7.656-15.224 6.952-13.420Q6.248-11.616 6.116-9.636Q9.460-10.692 11.374-11.990Q13.288-13.288 14.102-14.652Q14.916-16.016 14.916-17.204Q14.916-18.348 14.344-18.964Q13.772-19.580 12.892-19.580M8.580 0.616Q5.456 0.616 3.454-1.474Q1.452-3.564 1.452-7.612Q1.452-10.384 2.398-12.914Q3.344-15.444 5.038-17.424Q6.732-19.404 8.954-20.548Q11.176-21.692 13.728-21.692Q16.236-21.692 17.600-20.526Q18.964-19.360 18.964-17.292Q18.964-15.708 17.688-13.992Q16.412-12.276 13.596-10.692Q10.780-9.108 6.116-7.832Q6.336-5.412 7.502-4.290Q8.668-3.168 10.560-3.168Q12.584-3.168 14.058-4.180Q15.532-5.192 16.500-6.380L17.644-5.544Q16.720-3.960 15.356-2.552Q13.992-1.144 12.298-0.264Q10.604 0.616 8.580 0.616" fill="#0A1F44" transform="translate(323.796 0)"/><path d="" fill="#0A1F44" transform="translate(343.112 0)"/><path d="M7.348 0.352L6.952 0.044Q6.688-4.664 6.314-8.580Q5.940-12.496 5.456-16.104Q5.280-17.248 5.016-17.556Q4.752-17.864 4.312-17.864Q3.828-17.864 3.256-17.402Q2.684-16.940 1.804-15.664L0.792-16.588Q3.696-21.692 6.908-21.692Q8.448-21.692 9.174-20.768Q9.900-19.844 10.164-17.820Q10.560-14.828 10.802-11.286Q11.044-7.744 11.132-4.092Q13.156-6.600 14.762-9.020Q16.368-11.440 17.864-14.256L17.468-15.752Q17.292-16.412 17.094-17.116Q16.896-17.820 16.896-18.392Q16.896-20.152 17.732-20.966Q18.568-21.780 19.888-21.780Q21.164-21.780 21.780-21.164Q22-20.856 22.110-20.438Q22.220-20.020 22.220-19.228Q22.220-18.700 22.088-18.018Q21.956-17.336 21.516-16.280Q21.076-15.224 20.152-13.508Q18.568-10.560 15.752-6.930Q12.936-3.300 9.548 0.132" fill="#0A1F44" transform="translate(353.012 0)"/><path d="M12.892-19.580Q11.924-19.580 10.802-18.788Q9.680-17.996 8.668-16.610Q7.656-15.224 6.952-13.420Q6.248-11.616 6.116-9.636Q9.460-10.692 11.374-11.990Q13.288-13.288 14.102-14.652Q14.916-16.016 14.916-17.204Q14.916-18.348 14.344-18.964Q13.772-19.580 12.892-19.580M8.580 0.616Q5.456 0.616 3.454-1.474Q1.452-3.564 1.452-7.612Q1.452-10.384 2.398-12.914Q3.344-15.444 5.038-17.424Q6.732-19.404 8.954-20.548Q11.176-21.692 13.728-21.692Q16.236-21.692 17.600-20.526Q18.964-19.360 18.964-17.292Q18.964-15.708 17.688-13.992Q16.412-12.276 13.596-10.692Q10.780-9.108 6.116-7.832Q6.336-5.412 7.502-4.290Q8.668-3.168 10.560-3.168Q12.584-3.168 14.058-4.180Q15.532-5.192 16.500-6.380L17.644-5.544Q16.720-3.960 15.356-2.552Q13.992-1.144 12.298-0.264Q10.604 0.616 8.580 0.616" fill="#0A1F44" transform="translate(375.012 0)"/><path d="M2.508 0.352L1.936-0.088L5.588-17.512L1.936-17.908L2.156-19.360L9.988-21.736L10.692-21.164L9.636-14.828Q10.604-16.720 11.748-18.260Q12.892-19.800 14.124-20.746Q15.356-21.692 16.588-21.692Q17.644-21.692 18.502-21.274Q19.360-20.856 19.800-19.976Q19.800-18.656 19.118-17.776Q18.436-16.896 17.160-16.896Q15.708-16.896 14.212-18.392Q12.496-16.764 11.220-14.806Q9.944-12.848 8.932-10.736L8.624-9.328Q8.140-6.996 7.700-4.686Q7.260-2.376 6.820 0" fill="#0A1F44" transform="translate(394.328 0)"/><path d="M6.688 0.616Q4.004 0.616 2.486-0.572Q0.968-1.760 0.660-3.916Q0.836-4.708 1.386-5.192Q1.936-5.676 2.728-5.676Q4.796-5.676 5.368-3.300L5.852-1.144Q5.940-1.144 6.072-1.144Q6.204-1.144 6.292-1.144Q8.228-1.144 9.328-2.068Q10.428-2.992 10.428-4.488Q10.428-5.544 9.834-6.512Q9.240-7.480 7.480-8.800Q5.720-10.208 4.620-11.616Q3.520-13.024 3.520-15.136Q3.520-16.940 4.444-18.436Q5.368-19.932 7.084-20.812Q8.800-21.692 11.176-21.692Q16.104-21.692 17.028-17.600Q16.676-15.928 14.960-15.928Q14.124-15.928 13.420-16.500Q12.716-17.072 12.276-18.304L11.748-19.932L11.660-19.932Q9.636-19.932 8.800-18.920Q7.964-17.908 7.964-16.588Q7.964-15.224 8.756-14.234Q9.548-13.244 11.352-11.880Q13.332-10.340 14.168-9.064Q15.004-7.788 15.004-5.852Q15.004-3.168 12.826-1.276Q10.648 0.616 6.688 0.616" fill="#0A1F44" transform="translate(413.204 0)"/><path d="M12.892-19.580Q11.924-19.580 10.802-18.788Q9.680-17.996 8.668-16.610Q7.656-15.224 6.952-13.420Q6.248-11.616 6.116-9.636Q9.460-10.692 11.374-11.990Q13.288-13.288 14.102-14.652Q14.916-16.016 14.916-17.204Q14.916-18.348 14.344-18.964Q13.772-19.580 12.892-19.580M8.580 0.616Q5.456 0.616 3.454-1.474Q1.452-3.564 1.452-7.612Q1.452-10.384 2.398-12.914Q3.344-15.444 5.038-17.424Q6.732-19.404 8.954-20.548Q11.176-21.692 13.728-21.692Q16.236-21.692 17.600-20.526Q18.964-19.360 18.964-17.292Q18.964-15.708 17.688-13.992Q16.412-12.276 13.596-10.692Q10.780-9.108 6.116-7.832Q6.336-5.412 7.502-4.290Q8.668-3.168 10.560-3.168Q12.584-3.168 14.058-4.180Q15.532-5.192 16.500-6.380L17.644-5.544Q16.720-3.960 15.356-2.552Q13.992-1.144 12.298-0.264Q10.604 0.616 8.580 0.616" fill="#0A1F44" transform="translate(430.364 0)"/><path d="M4.708 0.528Q3.344 0.528 2.464-0.352Q1.584-1.232 1.584-2.464Q1.584-4.004 2.684-5.038Q3.784-6.072 5.280-6.072Q6.688-6.072 7.524-5.192Q8.360-4.312 8.360-3.080Q8.360-1.540 7.260-0.506Q6.160 0.528 4.708 0.528" fill="#0A1F44" transform="translate(449.680 0)"/></g>
</svg>
