<?xml version="1.0" encoding="UTF-8"?>
<svg xmlns="http://www.w3.org/2000/svg" viewBox="0 0 1113.20 474.20" width="1113" height="474" role="img" aria-label="PerfilaPro">
  <title>PerfilaPro</title>
  
  <g transform="translate(100.00 307.20)"><path d="M59.800-122.600L51.200-122.600Q51-109.800 50.900-96.700Q50.800-83.600 50.800-70.600L50.800-61.800L60.600-61.800Q76.400-61.800 83.600-70.500Q90.800-79.200 90.800-93Q90.800-107.200 83.100-114.900Q75.400-122.600 59.800-122.600M24.600-121.600L7.800-123.400L7.800-132.800L61.800-132.800Q90-132.800 103.100-121.800Q116.200-110.800 116.200-93Q116.200-81.800 110.700-72.300Q105.200-62.800 92.600-57.200Q80-51.600 59-51.600L50.800-51.600Q50.800-41.800 50.900-31.900Q51-22 51.200-11.400L69.400-9.400L69.400 0L7.800 0L7.800-9.400L24.600-11.200Q25-23.600 25-36.400Q25-49.200 25-62L25-70.600Q25-83.200 25-96Q25-108.800 24.600-121.600" fill="#0A1F44" transform="translate(0.000 0)"/><path d="M55.200-88.800Q50-88.800 45.100-85.800Q40.200-82.800 36.800-75.800Q33.400-68.800 32.600-56.800L59.600-56.800Q67.400-56.800 69.900-59.800Q72.400-62.800 72.400-68.200Q72.400-78.600 67.600-83.700Q62.800-88.800 55.200-88.800M56.200 2.800Q41.600 2.800 30.600-3Q19.600-8.800 13.500-19.900Q7.400-31 7.400-46.800Q7.400-62.800 13.800-74.400Q20.200-86 31.100-92.300Q42-98.600 55.200-98.600Q67.200-98.600 76.200-93.600Q85.200-88.600 90.200-79.600Q95.200-70.600 95.200-58.400Q95.200-52 94-47.400L32.400-47.400Q33.200-30.400 41.800-21.700Q50.400-13 63.800-13Q80.400-13 90.800-24.800L96.200-20.400Q90-9.400 80.800-3.300Q71.600 2.800 56.200 2.800" fill="#0A1F44" transform="translate(120.000 0)"/><path d="M60.600 0L7 0L7-8.200L20-10.800Q20.200-18.200 20.200-26.900Q20.200-35.600 20.200-42L20.200-52.600Q20.200-60.800 20.100-65.700Q20-70.600 19.600-76.600L5.400-78.400L5.400-85.800L38.800-98.600L42-96.600L44-72.800Q48.600-85.200 56.400-91.900Q64.200-98.600 72-98.600Q77.400-98.600 81.800-95.800Q86.200-93 87.600-87.800Q87.200-72.400 74.800-72.400Q67.400-72.400 61-79.400L59.200-81.400Q48.400-72 44-56L44-42Q44-35.800 44-27.300Q44-18.800 44.200-11.400L60.600-8.200" fill="#0A1F44" transform="translate(223.000 0)"/><path d="M61.600 0L6.600 0L6.600-8.200L20.200-10.800Q20.400-18.600 20.500-26.400Q20.600-34.200 20.600-42L20.600-83.800L5.600-83.800L5.600-94L21-96Q22.600-110.800 26-120.200Q29.400-129.600 37.400-137.400Q43.800-143.400 51.500-146.100Q59.200-148.800 66.800-148.800Q74.600-148.800 80.600-145.900Q86.600-143 88.200-136.200Q88-131.600 84.600-128.400Q81.200-125.200 75-125.200Q70.600-125.200 66.800-127.500Q63-129.800 59-135.200L55.200-138.800Q54.200-138 53.200-136.800Q52.200-135.600 51.200-134Q48.600-130 46.900-125.200Q45.200-120.400 44.500-113.400Q43.800-106.400 44-95.800L68.800-95.800L68.800-83.800L44.400-83.800L44.400-42Q44.400-34.400 44.500-26.700Q44.600-19 44.800-11.200L61.600-8.200" fill="#0A1F44" transform="translate(311.600 0)"/><path d="M56 0L6.600 0L6.600-8.200L19.600-10.800Q19.800-18.200 19.800-26.900Q19.800-35.600 19.800-42L19.800-51.400Q19.800-59.600 19.700-65.100Q19.600-70.600 19.200-76.600L5-78.400L5-85.800L41-98.600L44.200-96.600L43.600-68.400L43.600-42Q43.600-35.600 43.600-26.900Q43.600-18.200 43.800-10.600L56-8.200L56 0M30.800-116Q24.600-116 20.200-120Q15.800-124 15.800-130.200Q15.800-136.600 20.200-140.600Q24.600-144.600 30.800-144.600Q37.200-144.600 41.500-140.600Q45.800-136.600 45.800-130.200Q45.800-124 41.500-120Q37.200-116 30.800-116" fill="#0A1F44" transform="translate(383.200 0)"/><path d="M57.200 0L5.200 0L5.200-8.200L18.800-10.800Q19-18.600 19.100-26.400Q19.200-34.200 19.200-42L19.200-128L4.600-130L4.600-137.800L40.800-146.800L43.800-145L43-116.600L43-42Q43-34.200 43.100-26.400Q43.200-18.600 43.400-10.800L57.200-8.200" fill="#0A1F44" transform="translate(444.600 0)"/><path d="M83 2.400Q75 2.400 70-1.600Q65-5.600 63.400-12.400Q56-5 49.800-1.100Q43.600 2.800 34.200 2.800Q23 2.800 15.300-3.700Q7.600-10.200 7.600-22.400Q7.600-28.800 10.500-34.400Q13.400-40 21.100-44.800Q28.800-49.600 43.400-53.600Q48.200-55 53-56.300Q57.800-57.600 62.600-59L62.600-65.200Q62.600-79.200 58.700-84Q54.800-88.800 45-88.800Q43-88.800 41-88.600Q39-88.400 36.600-88L34.200-77.200Q33.400-70 30.100-66.600Q26.800-63.200 21.800-63.200Q12.200-63.200 10.600-72.400Q12.400-84.200 23.500-91.400Q34.600-98.600 52.800-98.600Q70.200-98.600 78.100-90.300Q86-82 86-62.400L86-18.800Q86-9.800 92-9.800Q95.800-9.800 99-14.200L103.600-10.200Q100-3.400 95-0.500Q90 2.400 83 2.400M31-26Q31-18.600 35-15.200Q39-11.800 45.200-11.800Q49.200-11.800 52.800-13.300Q56.400-14.800 62.600-19.200L62.600-51Q59.200-50 55.900-48.900Q52.600-47.800 49.400-46.800Q37.800-43 34.400-37.500Q31-32 31-26" fill="#0A1F44" transform="translate(506.600 0)"/></g>
  <g transform="translate(709.40 307.20)"><path d="M36-121.200L19.200-123.200L21.200-132.800L69.200-132.800Q94-132.800 105.500-122.900Q117-113 117-97Q117-84.400 110.300-74Q103.600-63.600 90.400-57.300Q77.200-51 57.400-51L47-51Q45-41.200 43.300-31.300Q41.600-21.400 40-11.600L58.800-9.400L56.800 0L-2.600 0L-0.600-9.400L16-11.200L27.200-70.800Q29.400-83.400 31.700-96Q34-108.600 36-121.200M60.400-122.200L49-62Q49-61.800 48.900-61.600Q48.800-61.400 48.800-61.200L57.600-61.200Q74.200-61.200 83.400-70.900Q92.600-80.600 92.600-96.800Q92.600-109.200 85.900-115.700Q79.200-122.200 66.600-122.200" fill="#00C277" transform="translate(0.000 0)"/><path d="M11.400 1.600L8.800-0.400L25.400-79.600L8.800-81.400L9.800-88L45.400-98.800L48.600-96.200L43.800-67.400Q48.200-76 53.400-83Q58.600-90 64.200-94.300Q69.800-98.600 75.400-98.600Q80.200-98.600 84.100-96.700Q88-94.800 90-90.800Q90-84.800 86.900-80.800Q83.800-76.800 78-76.800Q71.400-76.800 64.600-83.600Q56.800-76.200 51-67.300Q45.200-58.400 40.600-48.800L39.200-42.400Q37-31.800 35-21.300Q33-10.800 31 0" fill="#00C277" transform="translate(115.800 0)"/><path d="M42.200 2.800Q32.200 2.800 24-1.300Q15.800-5.400 11-13.500Q6.200-21.600 6.200-33.800Q6.200-46.800 10.500-58.500Q14.800-70.200 22.400-79.200Q30-88.200 40-93.400Q50-98.600 61.600-98.600Q77-98.600 87-89.500Q97-80.400 97-62Q97-49.200 92.800-37.600Q88.600-26 81.100-16.900Q73.600-7.800 63.700-2.500Q53.800 2.800 42.200 2.800M44.600-6.600Q51.200-6.600 56.700-11.600Q62.200-16.600 66.200-24.900Q70.200-33.200 72.300-43.300Q74.400-53.400 74.400-63.600Q74.400-77.800 70.200-83.500Q66-89.200 59.200-89.200Q52.600-89.200 47.100-84.400Q41.600-79.600 37.500-71.500Q33.400-63.400 31.100-53.200Q28.800-43 28.800-32.400Q28.800-18.200 33.300-12.400Q37.800-6.600 44.600-6.600" fill="#00C277" transform="translate(201.600 0)"/></g>
</svg>
